<svg width="176" height="172" viewBox="0 0 176 172" fill="none" xmlns="http://www.w3.org/2000/svg">
<g clip-path="url(#paint0_angular_2160_110046_clip_path)" data-figma-skip-parse="true"><g transform="matrix(-0.0648335 -0.133778 0.13111 -0.0635406 119.168 125.981)"><foreignObject x="-1121.18" y="-1121.18" width="2242.37" height="2242.37"><div xmlns="http://www.w3.org/1999/xhtml" style="background:conic-gradient(from 90deg,rgba(158, 181, 182, 1) 0deg,rgba(249, 146, 211, 1) 21.983deg,rgba(214, 4, 193, 1) 87.0094deg,rgba(156, 234, 239, 1) 282.584deg,rgba(61, 220, 151, 1) 336.429deg,rgba(158, 181, 182, 1) 360deg);height:100%;width:100%;opacity:1"></div></foreignObject></g></g><path d="M2.99893e-05 171.519C3.00314e-05 171.759 3.00734e-05 172 3.00734e-05 172L100.527 172C100.527 171.759 100.527 171.519 100.527 171.519C100.527 131.105 134.036 98.1482 175.5 98.1482L175.5 -3.06854e-05C78.5893 -1.3741e-05 1.34174e-05 76.7385 2.99893e-05 171.519Z" data-figma-gradient-fill="{&#34;type&#34;:&#34;GRADIENT_ANGULAR&#34;,&#34;stops&#34;:[{&#34;color&#34;:{&#34;r&#34;:0.97647058963775635,&#34;g&#34;:0.57254904508590698,&#34;b&#34;:0.82745099067687988,&#34;a&#34;:1.0},&#34;position&#34;:0.061063911765813828},{&#34;color&#34;:{&#34;r&#34;:0.83921569585800171,&#34;g&#34;:0.015686275437474251,&#34;b&#34;:0.75686275959014893,&#34;a&#34;:1.0},&#34;position&#34;:0.24169270694255829},{&#34;color&#34;:{&#34;r&#34;:0.61176472902297974,&#34;g&#34;:0.91764706373214722,&#34;b&#34;:0.93725490570068359,&#34;a&#34;:1.0},&#34;position&#34;:0.78495472669601440},{&#34;color&#34;:{&#34;r&#34;:0.23921568691730499,&#34;g&#34;:0.86274510622024536,&#34;b&#34;:0.59215688705444336,&#34;a&#34;:1.0},&#34;position&#34;:0.93452441692352295}],&#34;stopsVar&#34;:[{&#34;color&#34;:{&#34;r&#34;:0.97647058963775635,&#34;g&#34;:0.57254904508590698,&#34;b&#34;:0.82745099067687988,&#34;a&#34;:1.0},&#34;position&#34;:0.061063911765813828},{&#34;color&#34;:{&#34;r&#34;:0.83921569585800171,&#34;g&#34;:0.015686275437474251,&#34;b&#34;:0.75686275959014893,&#34;a&#34;:1.0},&#34;position&#34;:0.24169270694255829},{&#34;color&#34;:{&#34;r&#34;:0.61176472902297974,&#34;g&#34;:0.91764706373214722,&#34;b&#34;:0.93725490570068359,&#34;a&#34;:1.0},&#34;position&#34;:0.78495472669601440},{&#34;color&#34;:{&#34;r&#34;:0.23921568691730499,&#34;g&#34;:0.86274510622024536,&#34;b&#34;:0.59215688705444336,&#34;a&#34;:1.0},&#34;position&#34;:0.93452441692352295}],&#34;transform&#34;:{&#34;m00&#34;:-129.66706848144531,&#34;m01&#34;:262.22058105468750,&#34;m02&#34;:52.891513824462891,&#34;m10&#34;:-267.55645751953125,&#34;m11&#34;:-127.08112335205078,&#34;m12&#34;:323.29946899414062},&#34;opacity&#34;:1.0,&#34;blendMode&#34;:&#34;NORMAL&#34;,&#34;visible&#34;:true}"/>
<defs>
<clipPath id="paint0_angular_2160_110046_clip_path"><path d="M2.99893e-05 171.519C3.00314e-05 171.759 3.00734e-05 172 3.00734e-05 172L100.527 172C100.527 171.759 100.527 171.519 100.527 171.519C100.527 131.105 134.036 98.1482 175.5 98.1482L175.5 -3.06854e-05C78.5893 -1.3741e-05 1.34174e-05 76.7385 2.99893e-05 171.519Z"/></clipPath></defs>
</svg>
