<svg width="308" height="154" viewBox="0 0 308 154" fill="none" xmlns="http://www.w3.org/2000/svg">
<path d="M184.736 132.303L195.852 101.051L225.812 115.291C253.543 128.474 282.495 99.5456 269.289 71.8154L255.049 41.857L286.303 30.7416C315.232 20.4569 315.232 -20.4569 286.303 -30.7416L255.049 -41.857L269.289 -71.8155C282.473 -99.5457 253.543 -128.47 225.812 -115.291L195.852 -101.051L184.736 -132.304C174.451 -161.232 133.54 -161.232 123.251 -132.304L112.148 -101.051L82.188 -115.291C54.461 -128.47 25.5311 -99.5457 38.711 -71.8155L52.9509 -41.857L21.6974 -30.7416C-7.23247 -20.4569 -7.23247 20.4569 21.6974 30.7416L52.9509 41.857L38.711 71.8154C25.5311 99.5456 54.461 128.496 82.188 115.291L112.148 101.051L123.264 132.303C133.54 161.232 174.456 161.232 184.736 132.303Z" fill="#FF4522"/>
<ellipse cx="35" cy="36.5" rx="35" ry="36.5" transform="matrix(1 0 0 -1 119 37)" fill="#FAF7EF"/>
</svg>
