<svg width="96" height="96" viewBox="0 0 96 96" fill="none" xmlns="http://www.w3.org/2000/svg">
<path d="M57.5802 89.2375L61.0449 79.4965L70.383 83.9348C79.0265 88.0439 88.0504 79.0272 83.9343 70.384L79.4958 61.0463L89.2372 57.5818C98.2543 54.3762 98.2543 41.6238 89.2372 38.4182L79.4958 34.9537L83.9343 25.616C88.0436 16.9728 79.0265 7.95741 70.383 12.0652L61.0449 16.5035L57.5802 6.76254C54.3744 -2.25419 41.6229 -2.25419 38.4158 6.76254L34.9551 16.5035L25.617 12.0652C16.9749 7.95741 7.95775 16.9728 12.0658 25.616L16.5042 34.9537L6.76283 38.4182C-2.25428 41.6238 -2.25428 54.3762 6.76283 57.5818L16.5042 61.0463L12.0658 70.384C7.95775 79.0272 16.9749 88.0507 25.617 83.9348L34.9551 79.4965L38.4198 89.2375C41.6229 98.2542 54.3758 98.2542 57.5802 89.2375Z" fill="#FF4522"/>
<ellipse cx="10.9091" cy="11.3766" rx="10.9091" ry="11.3766" transform="matrix(1 0 0 -1 37.0908 59.5325)" fill="#FAF7EF"/>
</svg>
