<svg width="308" height="308" viewBox="0 0 308 308" fill="none" xmlns="http://www.w3.org/2000/svg">
<path d="M184.736 286.303L195.852 255.051L225.812 269.291C253.543 282.474 282.495 253.546 269.289 225.815L255.049 195.857L286.303 184.742C315.232 174.457 315.232 133.543 286.303 123.258L255.049 112.143L269.289 82.1845C282.473 54.4543 253.543 25.53 225.812 38.7093L195.852 52.9486L184.736 21.6965C174.451 -7.23221 133.54 -7.23221 123.251 21.6965L112.148 52.9486L82.188 38.7093C54.461 25.53 25.5311 54.4543 38.711 82.1845L52.9509 112.143L21.6974 123.258C-7.23247 133.543 -7.23247 174.457 21.6974 184.742L52.9509 195.857L38.711 225.815C25.5311 253.546 54.461 282.496 82.188 269.291L112.148 255.051L123.264 286.303C133.54 315.232 174.456 315.232 184.736 286.303Z" fill="#F992D3"/>
<ellipse cx="35" cy="36.5" rx="35" ry="36.5" transform="matrix(1 0 0 -1 112 191)" fill="#D604C1"/>
</svg>
