<svg width="40" height="49" viewBox="0 0 40 49" fill="none" xmlns="http://www.w3.org/2000/svg">
<path fill-rule="evenodd" clip-rule="evenodd" d="M16.0411 8.56705C16.7141 6.93685 18.2708 5.67574 19.8331 6.86294C21.3955 8.05027 19.9126 9.01106 18.795 10.4938C17.6777 11.9764 19.0919 12.7887 19.0919 12.7887C19.1165 12.8062 20.5853 13.8544 20.5118 15.612C20.4376 17.3844 17.9857 18.8673 16.6456 21.0885C15.3055 23.3098 16.793 26.4176 16.793 26.4176C20.2829 32.4906 16.719 35.6715 14.4893 37.0065C12.2597 38.3358 7.5789 39.7449 7.72662 42.6305C7.87488 45.5165 11.1477 44.0395 12.1114 42.8522C13.0751 41.6649 15.527 40.7051 15.2305 43.2956C14.934 45.8861 12.4763 48.8461 9.06061 48.9938C5.6394 49.1413 3.18734 46.4827 2.9649 43.7389C2.74251 40.995 5.49128 38.5519 8.68463 36.484C11.8778 34.4106 14.2556 33.2233 14.1817 30.5592C14.1247 28.4915 10.4074 29.1836 8.73639 29.5983C7.55034 29.8937 6.31259 29.9507 5.10943 29.7292C3.64971 29.4565 1.96145 28.7638 0.877988 27.0768C-1.35153 23.6002 1.25399 20.265 2.21783 19.3786C3.18724 18.4866 4.67046 18.3385 6.60357 15.0094C8.53662 11.6751 11.0626 10.7884 13.3663 11.3053C15.67 11.8223 15.3682 10.1975 16.0411 8.56705ZM22.1075 0.409819C22.7462 -0.101473 23.6935 -0.101321 24.4405 0.228179C25.1873 0.557691 25.7744 1.1766 26.2647 1.82974C29.0475 5.53376 29.2185 10.7375 27.6104 15.0778C26.6695 17.6229 25.1756 19.9639 24.4913 22.5885C24.3716 23.06 24.2864 23.5999 24.5772 23.9918C24.8567 24.3779 25.421 24.4629 25.877 24.321C26.333 24.179 26.7095 23.8667 27.0743 23.5543C28.1007 22.6795 29.1279 21.7984 30.1544 20.9235C30.9868 20.2135 31.9161 19.4639 33.0108 19.4411C34.1399 19.4183 35.166 20.2252 35.6963 21.2194C36.2266 22.2135 36.3464 23.3721 36.3692 24.5026C36.3863 25.4854 36.3699 26.5596 36.9629 27.3493C37.2937 27.7979 37.7899 28.0992 38.2061 28.4684C39.5915 29.6954 40.0993 31.6721 39.9854 33.5182C39.8543 35.5918 38.9584 37.6544 37.3731 39.0065C35.7878 40.3585 33.4782 40.9039 31.5167 40.1881C30.7071 39.8928 29.9489 39.3981 29.0938 39.3639C28.2272 39.3242 27.4627 39.9324 26.6075 40.0631C23.8019 40.4949 22.0279 38.7112 21.5831 38.1999C21.4976 38.109 21.4117 38.0124 21.3262 37.9215C20.5223 37.0637 19.9468 35.9384 19.9981 34.7682C20.0609 33.2969 21.0758 32.0014 21.1671 30.5358C21.2639 28.9963 20.3519 27.6042 19.5821 26.2692C18.8123 24.9342 18.1447 23.3154 18.7491 21.8952C19.0399 21.2191 19.5821 20.6847 20.0782 20.1393C23.2257 16.6796 24.9022 11.9302 24.6114 7.26626C24.5144 5.70973 24.0923 3.98822 22.7637 3.15884C22.4559 2.97145 22.1083 2.83507 21.8575 2.57388C21.2874 1.98318 21.4691 0.921241 22.1075 0.409819ZM32.3555 26.5592C31.9735 25.7867 30.8384 25.6843 30.0743 26.0876C29.5154 26.383 29.0874 26.8607 28.6768 27.3493C28.1238 28.0025 27.6504 28.7294 27.2969 29.5075C27.2912 29.5132 27.2862 29.5252 27.2862 29.5309C27.1722 29.7751 27.0921 30.0304 27.0294 30.2917C26.8868 30.9052 26.659 32.1321 26.7901 33.1774C26.887 33.95 27.6168 34.5074 28.3809 34.6608C29.3616 34.8595 30.4331 34.5806 31.1915 33.9274C31.9499 33.2741 32.3834 32.2632 32.3321 31.2633C32.2922 30.5532 32.0243 29.8543 32.087 29.1442C32.1668 28.2637 32.7489 27.3489 32.3555 26.5592ZM14.8721 17.7477C15.0942 16.3619 13.7025 15.8621 12.8643 16.0836C12.8456 16.0813 11.178 15.8782 8.46197 18.8043C5.73052 21.7471 5.83954 24.026 6.67779 24.8043C7.51615 25.5763 9.07278 24.9115 9.68853 24.1901C10.3045 23.4684 11.5302 21.7473 12.4766 20.8043C13.4232 19.8556 14.6497 19.1339 14.8721 17.7477Z" fill="#F992D3"/>
</svg>
