<svg width="94" height="58" viewBox="0 0 94 58" fill="none" xmlns="http://www.w3.org/2000/svg">
<path fill-rule="evenodd" clip-rule="evenodd" d="M62.1071 0.805556C62.5268 0.268518 63.0863 0 63.7857 0C64.4851 0 65.0446 0.268518 65.4643 0.805556L93.1607 27.3889C93.7202 27.7917 94 28.3287 94 29C94 29.6713 93.7202 30.2083 93.1607 30.6111L65.4643 57.1944C65.0446 57.7315 64.4851 58 63.7857 58C63.0863 58 62.5268 57.7315 62.1071 57.1944L57.9107 53.3681C57.3512 52.831 57.0714 52.2269 57.0714 51.5556C57.0714 50.8843 57.3512 50.3472 57.9107 49.9444L74.9062 34.2361H2.51786C1.81845 34.2361 1.22396 34.0012 0.734375 33.5312C0.244793 33.0613 0 32.4907 0 31.8194V26.1806C0 25.5093 0.244793 24.9387 0.734375 24.4688C1.22396 23.9988 1.81845 23.7639 2.51786 23.7639H74.9062L57.9107 8.05556C57.3512 7.65278 57.0714 7.11574 57.0714 6.44445C57.0714 5.77315 57.3512 5.16898 57.9107 4.63194L62.1071 0.805556Z" fill="#400039"/>
</svg>
