<svg width="137" height="2" viewBox="0 0 137 2" fill="none" xmlns="http://www.w3.org/2000/svg">
<mask id="path-1-outside-1_2803_2296" maskUnits="userSpaceOnUse" x="-0.5" y="-0.5" width="138" height="3" fill="black">
<rect fill="white" x="-0.5" y="-0.5" width="138" height="3"/>
<path d="M47.6451 1.13417C47.3982 1.30542 47.1182 1.5 46.5803 1.5C46.0424 1.5 45.7624 1.30583 45.5155 1.13417C45.2827 0.9725 45.082 0.833333 44.6596 0.833333C44.2373 0.833333 44.0366 0.972917 43.8038 1.13417C43.5569 1.30542 43.2774 1.5 42.7395 1.5C42.2016 1.5 41.922 1.30583 41.6751 1.13417C41.4423 0.9725 41.2417 0.833333 40.8193 0.833333C40.3969 0.833333 40.1963 0.972917 39.9635 1.13417C39.7166 1.30542 39.437 1.5 38.8991 1.5C38.3612 1.5 38.0817 1.30583 37.8348 1.13417C37.602 0.9725 37.4013 0.833333 36.9789 0.833333C36.5565 0.833333 36.3559 0.972917 36.1236 1.13417C35.8767 1.30542 35.5971 1.5 35.0592 1.5C34.5213 1.5 34.2418 1.30583 33.9948 1.13417C33.762 0.9725 33.5614 0.833333 33.139 0.833333C32.7166 0.833333 32.516 0.972917 32.2832 1.13417C32.0363 1.30542 31.7568 1.5 31.2189 1.5C30.6809 1.5 30.4014 1.30583 30.1545 1.13417C29.9217 0.9725 29.7211 0.833333 29.2987 0.833333C28.8763 0.833333 28.6757 0.972917 28.4433 1.13417C28.1964 1.30542 27.9169 1.5 27.3789 1.5C26.841 1.5 26.5615 1.30583 26.3146 1.13417C26.0822 0.9725 25.8812 0.833333 25.4592 0.833333C25.0373 0.833333 24.8362 0.972917 24.6038 1.13417C24.3569 1.30542 24.0774 1.5 23.5395 1.5C23.0016 1.5 22.722 1.30583 22.4751 1.13417C22.2427 0.9725 22.0417 0.833333 21.6197 0.833333C21.1978 0.833333 20.9967 0.972917 20.7644 1.13417C20.5175 1.30542 20.2379 1.5 19.7 1.5C19.1621 1.5 18.8825 1.30583 18.6356 1.13417C18.4033 0.9725 18.2022 0.833333 17.7803 0.833333C17.3583 0.833333 17.1573 0.972917 16.9249 1.13417C16.678 1.30542 16.3984 1.5 15.8605 1.5C15.3226 1.5 15.0431 1.30583 14.7962 1.13417C14.5638 0.9725 14.3627 0.833333 13.9408 0.833333C13.5188 0.833333 13.3178 0.972917 13.0854 1.13417C12.8385 1.30542 12.559 1.5 12.0211 1.5C11.4831 1.5 11.2036 1.30583 10.9567 1.13417C10.7243 0.9725 10.5233 0.833333 10.1013 0.833333C9.67937 0.833333 9.47831 0.972917 9.24595 1.13417C8.99904 1.30542 8.7195 1.5 8.18159 1.5C7.64367 1.5 7.36414 1.30583 7.11722 1.13417C6.88486 0.9725 6.68381 0.833333 6.26141 0.833333C5.83902 0.833333 5.6384 0.972917 5.40604 1.13417C5.15913 1.30542 4.87959 1.5 4.34168 1.5C3.80376 1.5 3.52422 1.30583 3.27731 1.13417C3.04495 0.9725 2.84389 0.833333 2.42194 0.833333C1.99999 0.833333 1.79893 0.972917 1.56657 1.13417C1.31745 1.30583 1.03791 1.5 0.5 1.5V1.16667C0.921954 1.16667 1.12301 1.02708 1.35537 0.865833C1.60228 0.694583 1.88182 0.5 2.41974 0.5C2.95765 0.5 3.23719 0.694167 3.4841 0.865833C3.71646 1.0275 3.91752 1.16667 4.33991 1.16667C4.76231 1.16667 4.96292 1.02708 5.19528 0.865833C5.44219 0.694583 5.72173 0.5 6.25965 0.5C6.79756 0.5 7.0771 0.694167 7.32401 0.865833C7.55637 1.0275 7.75743 1.16667 8.17938 1.16667C8.60134 1.16667 8.80239 1.02708 9.03475 0.865833C9.28167 0.694583 9.5612 0.5 10.0991 0.5C10.637 0.5 10.9166 0.694167 11.1635 0.865833C11.3958 1.0275 11.5969 1.16667 12.0189 1.16667C12.4408 1.16667 12.6419 1.02708 12.8742 0.865833C13.1211 0.694583 13.4007 0.5 13.9386 0.5C14.4765 0.5 14.756 0.694167 15.003 0.865833C15.2353 1.0275 15.4364 1.16667 15.8583 1.16667C16.2803 1.16667 16.4813 1.02708 16.7137 0.865833C16.9606 0.694583 17.2401 0.5 17.7781 0.5C18.316 0.5 18.5955 0.694167 18.8424 0.865833C19.0752 1.0275 19.2758 1.16667 19.6982 1.16667C20.1206 1.16667 20.3212 1.02708 20.5536 0.865833C20.8005 0.694583 21.0801 0.5 21.618 0.5C22.1559 0.5 22.4354 0.694167 22.6823 0.865833C22.9147 1.0275 23.1158 1.16667 23.5381 1.16667C23.9605 1.16667 24.1612 1.02708 24.3935 0.865833C24.6404 0.694583 24.92 0.5 25.4579 0.5C25.9958 0.5 26.2753 0.694167 26.5222 0.865833C26.7546 1.0275 26.9557 1.16667 27.3776 1.16667C27.7996 1.16667 28.0006 1.02708 28.2334 0.865833C28.4803 0.694583 28.7599 0.5 29.2978 0.5C29.8357 0.5 30.1152 0.694167 30.3622 0.865833C30.595 1.0275 30.7956 1.16667 31.218 1.16667C31.6404 1.16667 31.841 1.02708 32.0738 0.865833C32.3207 0.694583 32.6002 0.5 33.1381 0.5C33.6761 0.5 33.9556 0.694167 34.2025 0.865833C34.4353 1.0275 34.6359 1.16667 35.0583 1.16667C35.4807 1.16667 35.6813 1.02708 35.9137 0.865833C36.1606 0.694583 36.4401 0.5 36.9781 0.5C37.516 0.5 37.7955 0.694167 38.0424 0.865833C38.2752 1.0275 38.4758 1.16667 38.8982 1.16667C39.3206 1.16667 39.5212 1.02708 39.754 0.865833C40.001 0.694583 40.2805 0.5 40.8184 0.5C41.3563 0.5 41.6359 0.694167 41.8828 0.865833C42.1156 1.0275 42.3162 1.16667 42.7386 1.16667C43.161 1.16667 43.3616 1.02708 43.5944 0.865833C43.8413 0.694583 44.1209 0.5 44.6588 0.5C45.1967 0.5 45.4767 0.694167 45.7236 0.865833C45.9564 1.0275 46.157 1.16667 46.5794 1.16667C47.0018 1.16667 47.2024 1.02708 47.4352 0.865833C47.6821 0.694583 47.9621 0.5 48.5 0.5V0.833333C48.0776 0.833333 47.8779 0.972917 47.6451 1.13417Z"/>
<path d="M93.6451 1.13417C93.3982 1.30542 93.1182 1.5 92.5803 1.5C92.0424 1.5 91.7624 1.30583 91.5155 1.13417C91.2827 0.9725 91.082 0.833333 90.6596 0.833333C90.2373 0.833333 90.0366 0.972917 89.8038 1.13417C89.5569 1.30542 89.2774 1.5 88.7395 1.5C88.2016 1.5 87.922 1.30583 87.6751 1.13417C87.4423 0.9725 87.2417 0.833333 86.8193 0.833333C86.3969 0.833333 86.1963 0.972917 85.9635 1.13417C85.7166 1.30542 85.437 1.5 84.8991 1.5C84.3612 1.5 84.0817 1.30583 83.8348 1.13417C83.602 0.9725 83.4013 0.833333 82.9789 0.833333C82.5565 0.833333 82.3559 0.972917 82.1236 1.13417C81.8767 1.30542 81.5971 1.5 81.0592 1.5C80.5213 1.5 80.2418 1.30583 79.9948 1.13417C79.762 0.9725 79.5614 0.833333 79.139 0.833333C78.7166 0.833333 78.516 0.972917 78.2832 1.13417C78.0363 1.30542 77.7568 1.5 77.2189 1.5C76.6809 1.5 76.4014 1.30583 76.1545 1.13417C75.9217 0.9725 75.7211 0.833333 75.2987 0.833333C74.8763 0.833333 74.6757 0.972917 74.4433 1.13417C74.1964 1.30542 73.9169 1.5 73.3789 1.5C72.841 1.5 72.5615 1.30583 72.3146 1.13417C72.0822 0.9725 71.8812 0.833333 71.4592 0.833333C71.0373 0.833333 70.8362 0.972917 70.6038 1.13417C70.3569 1.30542 70.0774 1.5 69.5395 1.5C69.0016 1.5 68.722 1.30583 68.4751 1.13417C68.2427 0.9725 68.0417 0.833333 67.6197 0.833333C67.1978 0.833333 66.9967 0.972917 66.7644 1.13417C66.5175 1.30542 66.2379 1.5 65.7 1.5C65.1621 1.5 64.8825 1.30583 64.6356 1.13417C64.4033 0.9725 64.2022 0.833333 63.7803 0.833333C63.3583 0.833333 63.1573 0.972917 62.9249 1.13417C62.678 1.30542 62.3984 1.5 61.8605 1.5C61.3226 1.5 61.0431 1.30583 60.7962 1.13417C60.5638 0.9725 60.3628 0.833333 59.9408 0.833333C59.5188 0.833333 59.3178 0.972917 59.0854 1.13417C58.8385 1.30542 58.559 1.5 58.0211 1.5C57.4831 1.5 57.2036 1.30583 56.9567 1.13417C56.7243 0.9725 56.5233 0.833333 56.1013 0.833333C55.6794 0.833333 55.4783 0.972917 55.246 1.13417C54.999 1.30542 54.7195 1.5 54.1816 1.5C53.6437 1.5 53.3641 1.30583 53.1172 1.13417C52.8849 0.9725 52.6838 0.833333 52.2614 0.833333C51.839 0.833333 51.6384 0.972917 51.406 1.13417C51.1591 1.30542 50.8796 1.5 50.3417 1.5C49.8038 1.5 49.5242 1.30583 49.2773 1.13417C49.045 0.9725 48.8439 0.833333 48.4219 0.833333C48 0.833333 47.7989 0.972917 47.5666 1.13417C47.3175 1.30583 47.0379 1.5 46.5 1.5V1.16667C46.922 1.16667 47.123 1.02708 47.3554 0.865833C47.6023 0.694583 47.8818 0.5 48.4197 0.5C48.9576 0.5 49.2372 0.694167 49.4841 0.865833C49.7165 1.0275 49.9175 1.16667 50.3399 1.16667C50.7623 1.16667 50.9629 1.02708 51.1953 0.865833C51.4422 0.694583 51.7217 0.5 52.2596 0.5C52.7976 0.5 53.0771 0.694167 53.324 0.865833C53.5564 1.0275 53.7574 1.16667 54.1794 1.16667C54.6013 1.16667 54.8024 1.02708 55.0348 0.865833C55.2817 0.694583 55.5612 0.5 56.0991 0.5C56.637 0.5 56.9166 0.694167 57.1635 0.865833C57.3958 1.0275 57.5969 1.16667 58.0189 1.16667C58.4408 1.16667 58.6419 1.02708 58.8742 0.865833C59.1211 0.694583 59.4007 0.5 59.9386 0.5C60.4765 0.5 60.756 0.694167 61.003 0.865833C61.2353 1.0275 61.4364 1.16667 61.8583 1.16667C62.2803 1.16667 62.4813 1.02708 62.7137 0.865833C62.9606 0.694583 63.2401 0.5 63.7781 0.5C64.316 0.5 64.5955 0.694167 64.8424 0.865833C65.0752 1.0275 65.2758 1.16667 65.6982 1.16667C66.1206 1.16667 66.3213 1.02708 66.5536 0.865833C66.8005 0.694583 67.0801 0.5 67.618 0.5C68.1559 0.5 68.4354 0.694167 68.6823 0.865833C68.9147 1.0275 69.1158 1.16667 69.5381 1.16667C69.9605 1.16667 70.1612 1.02708 70.3935 0.865833C70.6404 0.694583 70.92 0.5 71.4579 0.5C71.9958 0.5 72.2753 0.694167 72.5222 0.865833C72.7546 1.0275 72.9557 1.16667 73.3776 1.16667C73.7996 1.16667 74.0006 1.02708 74.2334 0.865833C74.4803 0.694583 74.7599 0.5 75.2978 0.5C75.8357 0.5 76.1152 0.694167 76.3622 0.865833C76.595 1.0275 76.7956 1.16667 77.218 1.16667C77.6404 1.16667 77.841 1.02708 78.0738 0.865833C78.3207 0.694583 78.6002 0.5 79.1381 0.5C79.6761 0.5 79.9556 0.694167 80.2025 0.865833C80.4353 1.0275 80.6359 1.16667 81.0583 1.16667C81.4807 1.16667 81.6813 1.02708 81.9137 0.865833C82.1606 0.694583 82.4402 0.5 82.9781 0.5C83.516 0.5 83.7955 0.694167 84.0424 0.865833C84.2752 1.0275 84.4758 1.16667 84.8982 1.16667C85.3206 1.16667 85.5212 1.02708 85.7541 0.865833C86.001 0.694583 86.2805 0.5 86.8184 0.5C87.3563 0.5 87.6359 0.694167 87.8828 0.865833C88.1156 1.0275 88.3162 1.16667 88.7386 1.16667C89.161 1.16667 89.3616 1.02708 89.5944 0.865833C89.8413 0.694583 90.1209 0.5 90.6588 0.5C91.1967 0.5 91.4767 0.694167 91.7236 0.865833C91.9564 1.0275 92.157 1.16667 92.5794 1.16667C93.0018 1.16667 93.2024 1.02708 93.4352 0.865833C93.6821 0.694583 93.9621 0.5 94.5 0.5V0.833333C94.0776 0.833333 93.8779 0.972917 93.6451 1.13417Z"/>
<path d="M135.645 1.13417C135.398 1.30542 135.118 1.5 134.58 1.5C134.042 1.5 133.762 1.30583 133.515 1.13417C133.283 0.9725 133.082 0.833333 132.66 0.833333C132.237 0.833333 132.037 0.972917 131.804 1.13417C131.557 1.30542 131.277 1.5 130.739 1.5C130.202 1.5 129.922 1.30583 129.675 1.13417C129.442 0.9725 129.242 0.833333 128.819 0.833333C128.397 0.833333 128.196 0.972917 127.963 1.13417C127.717 1.30542 127.437 1.5 126.899 1.5C126.361 1.5 126.082 1.30583 125.835 1.13417C125.602 0.9725 125.401 0.833333 124.979 0.833333C124.557 0.833333 124.356 0.972917 124.124 1.13417C123.877 1.30542 123.597 1.5 123.059 1.5C122.521 1.5 122.242 1.30583 121.995 1.13417C121.762 0.9725 121.561 0.833333 121.139 0.833333C120.717 0.833333 120.516 0.972917 120.283 1.13417C120.036 1.30542 119.757 1.5 119.219 1.5C118.681 1.5 118.401 1.30583 118.154 1.13417C117.922 0.9725 117.721 0.833333 117.299 0.833333C116.876 0.833333 116.676 0.972917 116.443 1.13417C116.196 1.30542 115.917 1.5 115.379 1.5C114.841 1.5 114.561 1.30583 114.315 1.13417C114.082 0.9725 113.881 0.833333 113.459 0.833333C113.037 0.833333 112.836 0.972917 112.604 1.13417C112.357 1.30542 112.077 1.5 111.539 1.5C111.002 1.5 110.722 1.30583 110.475 1.13417C110.243 0.9725 110.042 0.833333 109.62 0.833333C109.198 0.833333 108.997 0.972917 108.764 1.13417C108.517 1.30542 108.238 1.5 107.7 1.5C107.162 1.5 106.883 1.30583 106.636 1.13417C106.403 0.9725 106.202 0.833333 105.78 0.833333C105.358 0.833333 105.157 0.972917 104.925 1.13417C104.678 1.30542 104.398 1.5 103.861 1.5C103.323 1.5 103.043 1.30583 102.796 1.13417C102.564 0.9725 102.363 0.833333 101.941 0.833333C101.519 0.833333 101.318 0.972917 101.085 1.13417C100.839 1.30542 100.559 1.5 100.021 1.5C99.4831 1.5 99.2036 1.30583 98.9567 1.13417C98.7243 0.9725 98.5233 0.833333 98.1013 0.833333C97.6794 0.833333 97.4783 0.972917 97.2459 1.13417C96.999 1.30542 96.7195 1.5 96.1816 1.5C95.6437 1.5 95.3641 1.30583 95.1172 1.13417C94.8849 0.9725 94.6838 0.833333 94.2614 0.833333C93.839 0.833333 93.6384 0.972917 93.406 1.13417C93.1591 1.30542 92.8796 1.5 92.3417 1.5C91.8038 1.5 91.5242 1.30583 91.2773 1.13417C91.045 0.9725 90.8439 0.833333 90.4219 0.833333C90 0.833333 89.7989 0.972917 89.5666 1.13417C89.3175 1.30583 89.0379 1.5 88.5 1.5V1.16667C88.922 1.16667 89.123 1.02708 89.3554 0.865833C89.6023 0.694583 89.8818 0.5 90.4197 0.5C90.9576 0.5 91.2372 0.694167 91.4841 0.865833C91.7165 1.0275 91.9175 1.16667 92.3399 1.16667C92.7623 1.16667 92.9629 1.02708 93.1953 0.865833C93.4422 0.694583 93.7217 0.5 94.2597 0.5C94.7976 0.5 95.0771 0.694167 95.324 0.865833C95.5564 1.0275 95.7574 1.16667 96.1794 1.16667C96.6013 1.16667 96.8024 1.02708 97.0348 0.865833C97.2817 0.694583 97.5612 0.5 98.0991 0.5C98.637 0.5 98.9166 0.694167 99.1635 0.865833C99.3958 1.0275 99.5969 1.16667 100.019 1.16667C100.441 1.16667 100.642 1.02708 100.874 0.865833C101.121 0.694583 101.401 0.5 101.939 0.5C102.477 0.5 102.756 0.694167 103.003 0.865833C103.235 1.0275 103.436 1.16667 103.858 1.16667C104.28 1.16667 104.481 1.02708 104.714 0.865833C104.961 0.694583 105.24 0.5 105.778 0.5C106.316 0.5 106.596 0.694167 106.842 0.865833C107.075 1.0275 107.276 1.16667 107.698 1.16667C108.121 1.16667 108.321 1.02708 108.554 0.865833C108.801 0.694583 109.08 0.5 109.618 0.5C110.156 0.5 110.435 0.694167 110.682 0.865833C110.915 1.0275 111.116 1.16667 111.538 1.16667C111.961 1.16667 112.161 1.02708 112.394 0.865833C112.64 0.694583 112.92 0.5 113.458 0.5C113.996 0.5 114.275 0.694167 114.522 0.865833C114.755 1.0275 114.956 1.16667 115.378 1.16667C115.8 1.16667 116.001 1.02708 116.233 0.865833C116.48 0.694583 116.76 0.5 117.298 0.5C117.836 0.5 118.115 0.694167 118.362 0.865833C118.595 1.0275 118.796 1.16667 119.218 1.16667C119.64 1.16667 119.841 1.02708 120.074 0.865833C120.321 0.694583 120.6 0.5 121.138 0.5C121.676 0.5 121.956 0.694167 122.203 0.865833C122.435 1.0275 122.636 1.16667 123.058 1.16667C123.481 1.16667 123.681 1.02708 123.914 0.865833C124.161 0.694583 124.44 0.5 124.978 0.5C125.516 0.5 125.796 0.694167 126.042 0.865833C126.275 1.0275 126.476 1.16667 126.898 1.16667C127.321 1.16667 127.521 1.02708 127.754 0.865833C128.001 0.694583 128.281 0.5 128.818 0.5C129.356 0.5 129.636 0.694167 129.883 0.865833C130.116 1.0275 130.316 1.16667 130.739 1.16667C131.161 1.16667 131.362 1.02708 131.594 0.865833C131.841 0.694583 132.121 0.5 132.659 0.5C133.197 0.5 133.477 0.694167 133.724 0.865833C133.956 1.0275 134.157 1.16667 134.579 1.16667C135.002 1.16667 135.202 1.02708 135.435 0.865833C135.682 0.694583 135.962 0.5 136.5 0.5V0.833333C136.078 0.833333 135.878 0.972917 135.645 1.13417Z"/>
</mask>
<path d="M47.6451 1.13417C47.3982 1.30542 47.1182 1.5 46.5803 1.5C46.0424 1.5 45.7624 1.30583 45.5155 1.13417C45.2827 0.9725 45.082 0.833333 44.6596 0.833333C44.2373 0.833333 44.0366 0.972917 43.8038 1.13417C43.5569 1.30542 43.2774 1.5 42.7395 1.5C42.2016 1.5 41.922 1.30583 41.6751 1.13417C41.4423 0.9725 41.2417 0.833333 40.8193 0.833333C40.3969 0.833333 40.1963 0.972917 39.9635 1.13417C39.7166 1.30542 39.437 1.5 38.8991 1.5C38.3612 1.5 38.0817 1.30583 37.8348 1.13417C37.602 0.9725 37.4013 0.833333 36.9789 0.833333C36.5565 0.833333 36.3559 0.972917 36.1236 1.13417C35.8767 1.30542 35.5971 1.5 35.0592 1.5C34.5213 1.5 34.2418 1.30583 33.9948 1.13417C33.762 0.9725 33.5614 0.833333 33.139 0.833333C32.7166 0.833333 32.516 0.972917 32.2832 1.13417C32.0363 1.30542 31.7568 1.5 31.2189 1.5C30.6809 1.5 30.4014 1.30583 30.1545 1.13417C29.9217 0.9725 29.7211 0.833333 29.2987 0.833333C28.8763 0.833333 28.6757 0.972917 28.4433 1.13417C28.1964 1.30542 27.9169 1.5 27.3789 1.5C26.841 1.5 26.5615 1.30583 26.3146 1.13417C26.0822 0.9725 25.8812 0.833333 25.4592 0.833333C25.0373 0.833333 24.8362 0.972917 24.6038 1.13417C24.3569 1.30542 24.0774 1.5 23.5395 1.5C23.0016 1.5 22.722 1.30583 22.4751 1.13417C22.2427 0.9725 22.0417 0.833333 21.6197 0.833333C21.1978 0.833333 20.9967 0.972917 20.7644 1.13417C20.5175 1.30542 20.2379 1.5 19.7 1.5C19.1621 1.5 18.8825 1.30583 18.6356 1.13417C18.4033 0.9725 18.2022 0.833333 17.7803 0.833333C17.3583 0.833333 17.1573 0.972917 16.9249 1.13417C16.678 1.30542 16.3984 1.5 15.8605 1.5C15.3226 1.5 15.0431 1.30583 14.7962 1.13417C14.5638 0.9725 14.3627 0.833333 13.9408 0.833333C13.5188 0.833333 13.3178 0.972917 13.0854 1.13417C12.8385 1.30542 12.559 1.5 12.0211 1.5C11.4831 1.5 11.2036 1.30583 10.9567 1.13417C10.7243 0.9725 10.5233 0.833333 10.1013 0.833333C9.67937 0.833333 9.47831 0.972917 9.24595 1.13417C8.99904 1.30542 8.7195 1.5 8.18159 1.5C7.64367 1.5 7.36414 1.30583 7.11722 1.13417C6.88486 0.9725 6.68381 0.833333 6.26141 0.833333C5.83902 0.833333 5.6384 0.972917 5.40604 1.13417C5.15913 1.30542 4.87959 1.5 4.34168 1.5C3.80376 1.5 3.52422 1.30583 3.27731 1.13417C3.04495 0.9725 2.84389 0.833333 2.42194 0.833333C1.99999 0.833333 1.79893 0.972917 1.56657 1.13417C1.31745 1.30583 1.03791 1.5 0.5 1.5V1.16667C0.921954 1.16667 1.12301 1.02708 1.35537 0.865833C1.60228 0.694583 1.88182 0.5 2.41974 0.5C2.95765 0.5 3.23719 0.694167 3.4841 0.865833C3.71646 1.0275 3.91752 1.16667 4.33991 1.16667C4.76231 1.16667 4.96292 1.02708 5.19528 0.865833C5.44219 0.694583 5.72173 0.5 6.25965 0.5C6.79756 0.5 7.0771 0.694167 7.32401 0.865833C7.55637 1.0275 7.75743 1.16667 8.17938 1.16667C8.60134 1.16667 8.80239 1.02708 9.03475 0.865833C9.28167 0.694583 9.5612 0.5 10.0991 0.5C10.637 0.5 10.9166 0.694167 11.1635 0.865833C11.3958 1.0275 11.5969 1.16667 12.0189 1.16667C12.4408 1.16667 12.6419 1.02708 12.8742 0.865833C13.1211 0.694583 13.4007 0.5 13.9386 0.5C14.4765 0.5 14.756 0.694167 15.003 0.865833C15.2353 1.0275 15.4364 1.16667 15.8583 1.16667C16.2803 1.16667 16.4813 1.02708 16.7137 0.865833C16.9606 0.694583 17.2401 0.5 17.7781 0.5C18.316 0.5 18.5955 0.694167 18.8424 0.865833C19.0752 1.0275 19.2758 1.16667 19.6982 1.16667C20.1206 1.16667 20.3212 1.02708 20.5536 0.865833C20.8005 0.694583 21.0801 0.5 21.618 0.5C22.1559 0.5 22.4354 0.694167 22.6823 0.865833C22.9147 1.0275 23.1158 1.16667 23.5381 1.16667C23.9605 1.16667 24.1612 1.02708 24.3935 0.865833C24.6404 0.694583 24.92 0.5 25.4579 0.5C25.9958 0.5 26.2753 0.694167 26.5222 0.865833C26.7546 1.0275 26.9557 1.16667 27.3776 1.16667C27.7996 1.16667 28.0006 1.02708 28.2334 0.865833C28.4803 0.694583 28.7599 0.5 29.2978 0.5C29.8357 0.5 30.1152 0.694167 30.3622 0.865833C30.595 1.0275 30.7956 1.16667 31.218 1.16667C31.6404 1.16667 31.841 1.02708 32.0738 0.865833C32.3207 0.694583 32.6002 0.5 33.1381 0.5C33.6761 0.5 33.9556 0.694167 34.2025 0.865833C34.4353 1.0275 34.6359 1.16667 35.0583 1.16667C35.4807 1.16667 35.6813 1.02708 35.9137 0.865833C36.1606 0.694583 36.4401 0.5 36.9781 0.5C37.516 0.5 37.7955 0.694167 38.0424 0.865833C38.2752 1.0275 38.4758 1.16667 38.8982 1.16667C39.3206 1.16667 39.5212 1.02708 39.754 0.865833C40.001 0.694583 40.2805 0.5 40.8184 0.5C41.3563 0.5 41.6359 0.694167 41.8828 0.865833C42.1156 1.0275 42.3162 1.16667 42.7386 1.16667C43.161 1.16667 43.3616 1.02708 43.5944 0.865833C43.8413 0.694583 44.1209 0.5 44.6588 0.5C45.1967 0.5 45.4767 0.694167 45.7236 0.865833C45.9564 1.0275 46.157 1.16667 46.5794 1.16667C47.0018 1.16667 47.2024 1.02708 47.4352 0.865833C47.6821 0.694583 47.9621 0.5 48.5 0.5V0.833333C48.0776 0.833333 47.8779 0.972917 47.6451 1.13417Z" fill="#F992D3"/>
<path d="M93.6451 1.13417C93.3982 1.30542 93.1182 1.5 92.5803 1.5C92.0424 1.5 91.7624 1.30583 91.5155 1.13417C91.2827 0.9725 91.082 0.833333 90.6596 0.833333C90.2373 0.833333 90.0366 0.972917 89.8038 1.13417C89.5569 1.30542 89.2774 1.5 88.7395 1.5C88.2016 1.5 87.922 1.30583 87.6751 1.13417C87.4423 0.9725 87.2417 0.833333 86.8193 0.833333C86.3969 0.833333 86.1963 0.972917 85.9635 1.13417C85.7166 1.30542 85.437 1.5 84.8991 1.5C84.3612 1.5 84.0817 1.30583 83.8348 1.13417C83.602 0.9725 83.4013 0.833333 82.9789 0.833333C82.5565 0.833333 82.3559 0.972917 82.1236 1.13417C81.8767 1.30542 81.5971 1.5 81.0592 1.5C80.5213 1.5 80.2418 1.30583 79.9948 1.13417C79.762 0.9725 79.5614 0.833333 79.139 0.833333C78.7166 0.833333 78.516 0.972917 78.2832 1.13417C78.0363 1.30542 77.7568 1.5 77.2189 1.5C76.6809 1.5 76.4014 1.30583 76.1545 1.13417C75.9217 0.9725 75.7211 0.833333 75.2987 0.833333C74.8763 0.833333 74.6757 0.972917 74.4433 1.13417C74.1964 1.30542 73.9169 1.5 73.3789 1.5C72.841 1.5 72.5615 1.30583 72.3146 1.13417C72.0822 0.9725 71.8812 0.833333 71.4592 0.833333C71.0373 0.833333 70.8362 0.972917 70.6038 1.13417C70.3569 1.30542 70.0774 1.5 69.5395 1.5C69.0016 1.5 68.722 1.30583 68.4751 1.13417C68.2427 0.9725 68.0417 0.833333 67.6197 0.833333C67.1978 0.833333 66.9967 0.972917 66.7644 1.13417C66.5175 1.30542 66.2379 1.5 65.7 1.5C65.1621 1.5 64.8825 1.30583 64.6356 1.13417C64.4033 0.9725 64.2022 0.833333 63.7803 0.833333C63.3583 0.833333 63.1573 0.972917 62.9249 1.13417C62.678 1.30542 62.3984 1.5 61.8605 1.5C61.3226 1.5 61.0431 1.30583 60.7962 1.13417C60.5638 0.9725 60.3628 0.833333 59.9408 0.833333C59.5188 0.833333 59.3178 0.972917 59.0854 1.13417C58.8385 1.30542 58.559 1.5 58.0211 1.5C57.4831 1.5 57.2036 1.30583 56.9567 1.13417C56.7243 0.9725 56.5233 0.833333 56.1013 0.833333C55.6794 0.833333 55.4783 0.972917 55.246 1.13417C54.999 1.30542 54.7195 1.5 54.1816 1.5C53.6437 1.5 53.3641 1.30583 53.1172 1.13417C52.8849 0.9725 52.6838 0.833333 52.2614 0.833333C51.839 0.833333 51.6384 0.972917 51.406 1.13417C51.1591 1.30542 50.8796 1.5 50.3417 1.5C49.8038 1.5 49.5242 1.30583 49.2773 1.13417C49.045 0.9725 48.8439 0.833333 48.4219 0.833333C48 0.833333 47.7989 0.972917 47.5666 1.13417C47.3175 1.30583 47.0379 1.5 46.5 1.5V1.16667C46.922 1.16667 47.123 1.02708 47.3554 0.865833C47.6023 0.694583 47.8818 0.5 48.4197 0.5C48.9576 0.5 49.2372 0.694167 49.4841 0.865833C49.7165 1.0275 49.9175 1.16667 50.3399 1.16667C50.7623 1.16667 50.9629 1.02708 51.1953 0.865833C51.4422 0.694583 51.7217 0.5 52.2596 0.5C52.7976 0.5 53.0771 0.694167 53.324 0.865833C53.5564 1.0275 53.7574 1.16667 54.1794 1.16667C54.6013 1.16667 54.8024 1.02708 55.0348 0.865833C55.2817 0.694583 55.5612 0.5 56.0991 0.5C56.637 0.5 56.9166 0.694167 57.1635 0.865833C57.3958 1.0275 57.5969 1.16667 58.0189 1.16667C58.4408 1.16667 58.6419 1.02708 58.8742 0.865833C59.1211 0.694583 59.4007 0.5 59.9386 0.5C60.4765 0.5 60.756 0.694167 61.003 0.865833C61.2353 1.0275 61.4364 1.16667 61.8583 1.16667C62.2803 1.16667 62.4813 1.02708 62.7137 0.865833C62.9606 0.694583 63.2401 0.5 63.7781 0.5C64.316 0.5 64.5955 0.694167 64.8424 0.865833C65.0752 1.0275 65.2758 1.16667 65.6982 1.16667C66.1206 1.16667 66.3213 1.02708 66.5536 0.865833C66.8005 0.694583 67.0801 0.5 67.618 0.5C68.1559 0.5 68.4354 0.694167 68.6823 0.865833C68.9147 1.0275 69.1158 1.16667 69.5381 1.16667C69.9605 1.16667 70.1612 1.02708 70.3935 0.865833C70.6404 0.694583 70.92 0.5 71.4579 0.5C71.9958 0.5 72.2753 0.694167 72.5222 0.865833C72.7546 1.0275 72.9557 1.16667 73.3776 1.16667C73.7996 1.16667 74.0006 1.02708 74.2334 0.865833C74.4803 0.694583 74.7599 0.5 75.2978 0.5C75.8357 0.5 76.1152 0.694167 76.3622 0.865833C76.595 1.0275 76.7956 1.16667 77.218 1.16667C77.6404 1.16667 77.841 1.02708 78.0738 0.865833C78.3207 0.694583 78.6002 0.5 79.1381 0.5C79.6761 0.5 79.9556 0.694167 80.2025 0.865833C80.4353 1.0275 80.6359 1.16667 81.0583 1.16667C81.4807 1.16667 81.6813 1.02708 81.9137 0.865833C82.1606 0.694583 82.4402 0.5 82.9781 0.5C83.516 0.5 83.7955 0.694167 84.0424 0.865833C84.2752 1.0275 84.4758 1.16667 84.8982 1.16667C85.3206 1.16667 85.5212 1.02708 85.7541 0.865833C86.001 0.694583 86.2805 0.5 86.8184 0.5C87.3563 0.5 87.6359 0.694167 87.8828 0.865833C88.1156 1.0275 88.3162 1.16667 88.7386 1.16667C89.161 1.16667 89.3616 1.02708 89.5944 0.865833C89.8413 0.694583 90.1209 0.5 90.6588 0.5C91.1967 0.5 91.4767 0.694167 91.7236 0.865833C91.9564 1.0275 92.157 1.16667 92.5794 1.16667C93.0018 1.16667 93.2024 1.02708 93.4352 0.865833C93.6821 0.694583 93.9621 0.5 94.5 0.5V0.833333C94.0776 0.833333 93.8779 0.972917 93.6451 1.13417Z" fill="#F992D3"/>
<path d="M135.645 1.13417C135.398 1.30542 135.118 1.5 134.58 1.5C134.042 1.5 133.762 1.30583 133.515 1.13417C133.283 0.9725 133.082 0.833333 132.66 0.833333C132.237 0.833333 132.037 0.972917 131.804 1.13417C131.557 1.30542 131.277 1.5 130.739 1.5C130.202 1.5 129.922 1.30583 129.675 1.13417C129.442 0.9725 129.242 0.833333 128.819 0.833333C128.397 0.833333 128.196 0.972917 127.963 1.13417C127.717 1.30542 127.437 1.5 126.899 1.5C126.361 1.5 126.082 1.30583 125.835 1.13417C125.602 0.9725 125.401 0.833333 124.979 0.833333C124.557 0.833333 124.356 0.972917 124.124 1.13417C123.877 1.30542 123.597 1.5 123.059 1.5C122.521 1.5 122.242 1.30583 121.995 1.13417C121.762 0.9725 121.561 0.833333 121.139 0.833333C120.717 0.833333 120.516 0.972917 120.283 1.13417C120.036 1.30542 119.757 1.5 119.219 1.5C118.681 1.5 118.401 1.30583 118.154 1.13417C117.922 0.9725 117.721 0.833333 117.299 0.833333C116.876 0.833333 116.676 0.972917 116.443 1.13417C116.196 1.30542 115.917 1.5 115.379 1.5C114.841 1.5 114.561 1.30583 114.315 1.13417C114.082 0.9725 113.881 0.833333 113.459 0.833333C113.037 0.833333 112.836 0.972917 112.604 1.13417C112.357 1.30542 112.077 1.5 111.539 1.5C111.002 1.5 110.722 1.30583 110.475 1.13417C110.243 0.9725 110.042 0.833333 109.62 0.833333C109.198 0.833333 108.997 0.972917 108.764 1.13417C108.517 1.30542 108.238 1.5 107.7 1.5C107.162 1.5 106.883 1.30583 106.636 1.13417C106.403 0.9725 106.202 0.833333 105.78 0.833333C105.358 0.833333 105.157 0.972917 104.925 1.13417C104.678 1.30542 104.398 1.5 103.861 1.5C103.323 1.5 103.043 1.30583 102.796 1.13417C102.564 0.9725 102.363 0.833333 101.941 0.833333C101.519 0.833333 101.318 0.972917 101.085 1.13417C100.839 1.30542 100.559 1.5 100.021 1.5C99.4831 1.5 99.2036 1.30583 98.9567 1.13417C98.7243 0.9725 98.5233 0.833333 98.1013 0.833333C97.6794 0.833333 97.4783 0.972917 97.2459 1.13417C96.999 1.30542 96.7195 1.5 96.1816 1.5C95.6437 1.5 95.3641 1.30583 95.1172 1.13417C94.8849 0.9725 94.6838 0.833333 94.2614 0.833333C93.839 0.833333 93.6384 0.972917 93.406 1.13417C93.1591 1.30542 92.8796 1.5 92.3417 1.5C91.8038 1.5 91.5242 1.30583 91.2773 1.13417C91.045 0.9725 90.8439 0.833333 90.4219 0.833333C90 0.833333 89.7989 0.972917 89.5666 1.13417C89.3175 1.30583 89.0379 1.5 88.5 1.5V1.16667C88.922 1.16667 89.123 1.02708 89.3554 0.865833C89.6023 0.694583 89.8818 0.5 90.4197 0.5C90.9576 0.5 91.2372 0.694167 91.4841 0.865833C91.7165 1.0275 91.9175 1.16667 92.3399 1.16667C92.7623 1.16667 92.9629 1.02708 93.1953 0.865833C93.4422 0.694583 93.7217 0.5 94.2597 0.5C94.7976 0.5 95.0771 0.694167 95.324 0.865833C95.5564 1.0275 95.7574 1.16667 96.1794 1.16667C96.6013 1.16667 96.8024 1.02708 97.0348 0.865833C97.2817 0.694583 97.5612 0.5 98.0991 0.5C98.637 0.5 98.9166 0.694167 99.1635 0.865833C99.3958 1.0275 99.5969 1.16667 100.019 1.16667C100.441 1.16667 100.642 1.02708 100.874 0.865833C101.121 0.694583 101.401 0.5 101.939 0.5C102.477 0.5 102.756 0.694167 103.003 0.865833C103.235 1.0275 103.436 1.16667 103.858 1.16667C104.28 1.16667 104.481 1.02708 104.714 0.865833C104.961 0.694583 105.24 0.5 105.778 0.5C106.316 0.5 106.596 0.694167 106.842 0.865833C107.075 1.0275 107.276 1.16667 107.698 1.16667C108.121 1.16667 108.321 1.02708 108.554 0.865833C108.801 0.694583 109.08 0.5 109.618 0.5C110.156 0.5 110.435 0.694167 110.682 0.865833C110.915 1.0275 111.116 1.16667 111.538 1.16667C111.961 1.16667 112.161 1.02708 112.394 0.865833C112.64 0.694583 112.92 0.5 113.458 0.5C113.996 0.5 114.275 0.694167 114.522 0.865833C114.755 1.0275 114.956 1.16667 115.378 1.16667C115.8 1.16667 116.001 1.02708 116.233 0.865833C116.48 0.694583 116.76 0.5 117.298 0.5C117.836 0.5 118.115 0.694167 118.362 0.865833C118.595 1.0275 118.796 1.16667 119.218 1.16667C119.64 1.16667 119.841 1.02708 120.074 0.865833C120.321 0.694583 120.6 0.5 121.138 0.5C121.676 0.5 121.956 0.694167 122.203 0.865833C122.435 1.0275 122.636 1.16667 123.058 1.16667C123.481 1.16667 123.681 1.02708 123.914 0.865833C124.161 0.694583 124.44 0.5 124.978 0.5C125.516 0.5 125.796 0.694167 126.042 0.865833C126.275 1.0275 126.476 1.16667 126.898 1.16667C127.321 1.16667 127.521 1.02708 127.754 0.865833C128.001 0.694583 128.281 0.5 128.818 0.5C129.356 0.5 129.636 0.694167 129.883 0.865833C130.116 1.0275 130.316 1.16667 130.739 1.16667C131.161 1.16667 131.362 1.02708 131.594 0.865833C131.841 0.694583 132.121 0.5 132.659 0.5C133.197 0.5 133.477 0.694167 133.724 0.865833C133.956 1.0275 134.157 1.16667 134.579 1.16667C135.002 1.16667 135.202 1.02708 135.435 0.865833C135.682 0.694583 135.962 0.5 136.5 0.5V0.833333C136.078 0.833333 135.878 0.972917 135.645 1.13417Z" fill="#F992D3"/>
<path d="M47.6451 1.13417C47.3982 1.30542 47.1182 1.5 46.5803 1.5C46.0424 1.5 45.7624 1.30583 45.5155 1.13417C45.2827 0.9725 45.082 0.833333 44.6596 0.833333C44.2373 0.833333 44.0366 0.972917 43.8038 1.13417C43.5569 1.30542 43.2774 1.5 42.7395 1.5C42.2016 1.5 41.922 1.30583 41.6751 1.13417C41.4423 0.9725 41.2417 0.833333 40.8193 0.833333C40.3969 0.833333 40.1963 0.972917 39.9635 1.13417C39.7166 1.30542 39.437 1.5 38.8991 1.5C38.3612 1.5 38.0817 1.30583 37.8348 1.13417C37.602 0.9725 37.4013 0.833333 36.9789 0.833333C36.5565 0.833333 36.3559 0.972917 36.1236 1.13417C35.8767 1.30542 35.5971 1.5 35.0592 1.5C34.5213 1.5 34.2418 1.30583 33.9948 1.13417C33.762 0.9725 33.5614 0.833333 33.139 0.833333C32.7166 0.833333 32.516 0.972917 32.2832 1.13417C32.0363 1.30542 31.7568 1.5 31.2189 1.5C30.6809 1.5 30.4014 1.30583 30.1545 1.13417C29.9217 0.9725 29.7211 0.833333 29.2987 0.833333C28.8763 0.833333 28.6757 0.972917 28.4433 1.13417C28.1964 1.30542 27.9169 1.5 27.3789 1.5C26.841 1.5 26.5615 1.30583 26.3146 1.13417C26.0822 0.9725 25.8812 0.833333 25.4592 0.833333C25.0373 0.833333 24.8362 0.972917 24.6038 1.13417C24.3569 1.30542 24.0774 1.5 23.5395 1.5C23.0016 1.5 22.722 1.30583 22.4751 1.13417C22.2427 0.9725 22.0417 0.833333 21.6197 0.833333C21.1978 0.833333 20.9967 0.972917 20.7644 1.13417C20.5175 1.30542 20.2379 1.5 19.7 1.5C19.1621 1.5 18.8825 1.30583 18.6356 1.13417C18.4033 0.9725 18.2022 0.833333 17.7803 0.833333C17.3583 0.833333 17.1573 0.972917 16.9249 1.13417C16.678 1.30542 16.3984 1.5 15.8605 1.5C15.3226 1.5 15.0431 1.30583 14.7962 1.13417C14.5638 0.9725 14.3627 0.833333 13.9408 0.833333C13.5188 0.833333 13.3178 0.972917 13.0854 1.13417C12.8385 1.30542 12.559 1.5 12.0211 1.5C11.4831 1.5 11.2036 1.30583 10.9567 1.13417C10.7243 0.9725 10.5233 0.833333 10.1013 0.833333C9.67937 0.833333 9.47831 0.972917 9.24595 1.13417C8.99904 1.30542 8.7195 1.5 8.18159 1.5C7.64367 1.5 7.36414 1.30583 7.11722 1.13417C6.88486 0.9725 6.68381 0.833333 6.26141 0.833333C5.83902 0.833333 5.6384 0.972917 5.40604 1.13417C5.15913 1.30542 4.87959 1.5 4.34168 1.5C3.80376 1.5 3.52422 1.30583 3.27731 1.13417C3.04495 0.9725 2.84389 0.833333 2.42194 0.833333C1.99999 0.833333 1.79893 0.972917 1.56657 1.13417C1.31745 1.30583 1.03791 1.5 0.5 1.5V1.16667C0.921954 1.16667 1.12301 1.02708 1.35537 0.865833C1.60228 0.694583 1.88182 0.5 2.41974 0.5C2.95765 0.5 3.23719 0.694167 3.4841 0.865833C3.71646 1.0275 3.91752 1.16667 4.33991 1.16667C4.76231 1.16667 4.96292 1.02708 5.19528 0.865833C5.44219 0.694583 5.72173 0.5 6.25965 0.5C6.79756 0.5 7.0771 0.694167 7.32401 0.865833C7.55637 1.0275 7.75743 1.16667 8.17938 1.16667C8.60134 1.16667 8.80239 1.02708 9.03475 0.865833C9.28167 0.694583 9.5612 0.5 10.0991 0.5C10.637 0.5 10.9166 0.694167 11.1635 0.865833C11.3958 1.0275 11.5969 1.16667 12.0189 1.16667C12.4408 1.16667 12.6419 1.02708 12.8742 0.865833C13.1211 0.694583 13.4007 0.5 13.9386 0.5C14.4765 0.5 14.756 0.694167 15.003 0.865833C15.2353 1.0275 15.4364 1.16667 15.8583 1.16667C16.2803 1.16667 16.4813 1.02708 16.7137 0.865833C16.9606 0.694583 17.2401 0.5 17.7781 0.5C18.316 0.5 18.5955 0.694167 18.8424 0.865833C19.0752 1.0275 19.2758 1.16667 19.6982 1.16667C20.1206 1.16667 20.3212 1.02708 20.5536 0.865833C20.8005 0.694583 21.0801 0.5 21.618 0.5C22.1559 0.5 22.4354 0.694167 22.6823 0.865833C22.9147 1.0275 23.1158 1.16667 23.5381 1.16667C23.9605 1.16667 24.1612 1.02708 24.3935 0.865833C24.6404 0.694583 24.92 0.5 25.4579 0.5C25.9958 0.5 26.2753 0.694167 26.5222 0.865833C26.7546 1.0275 26.9557 1.16667 27.3776 1.16667C27.7996 1.16667 28.0006 1.02708 28.2334 0.865833C28.4803 0.694583 28.7599 0.5 29.2978 0.5C29.8357 0.5 30.1152 0.694167 30.3622 0.865833C30.595 1.0275 30.7956 1.16667 31.218 1.16667C31.6404 1.16667 31.841 1.02708 32.0738 0.865833C32.3207 0.694583 32.6002 0.5 33.1381 0.5C33.6761 0.5 33.9556 0.694167 34.2025 0.865833C34.4353 1.0275 34.6359 1.16667 35.0583 1.16667C35.4807 1.16667 35.6813 1.02708 35.9137 0.865833C36.1606 0.694583 36.4401 0.5 36.9781 0.5C37.516 0.5 37.7955 0.694167 38.0424 0.865833C38.2752 1.0275 38.4758 1.16667 38.8982 1.16667C39.3206 1.16667 39.5212 1.02708 39.754 0.865833C40.001 0.694583 40.2805 0.5 40.8184 0.5C41.3563 0.5 41.6359 0.694167 41.8828 0.865833C42.1156 1.0275 42.3162 1.16667 42.7386 1.16667C43.161 1.16667 43.3616 1.02708 43.5944 0.865833C43.8413 0.694583 44.1209 0.5 44.6588 0.5C45.1967 0.5 45.4767 0.694167 45.7236 0.865833C45.9564 1.0275 46.157 1.16667 46.5794 1.16667C47.0018 1.16667 47.2024 1.02708 47.4352 0.865833C47.6821 0.694583 47.9621 0.5 48.5 0.5V0.833333C48.0776 0.833333 47.8779 0.972917 47.6451 1.13417Z" stroke="#F992D3" mask="url(#path-1-outside-1_2803_2296)"/>
<path d="M93.6451 1.13417C93.3982 1.30542 93.1182 1.5 92.5803 1.5C92.0424 1.5 91.7624 1.30583 91.5155 1.13417C91.2827 0.9725 91.082 0.833333 90.6596 0.833333C90.2373 0.833333 90.0366 0.972917 89.8038 1.13417C89.5569 1.30542 89.2774 1.5 88.7395 1.5C88.2016 1.5 87.922 1.30583 87.6751 1.13417C87.4423 0.9725 87.2417 0.833333 86.8193 0.833333C86.3969 0.833333 86.1963 0.972917 85.9635 1.13417C85.7166 1.30542 85.437 1.5 84.8991 1.5C84.3612 1.5 84.0817 1.30583 83.8348 1.13417C83.602 0.9725 83.4013 0.833333 82.9789 0.833333C82.5565 0.833333 82.3559 0.972917 82.1236 1.13417C81.8767 1.30542 81.5971 1.5 81.0592 1.5C80.5213 1.5 80.2418 1.30583 79.9948 1.13417C79.762 0.9725 79.5614 0.833333 79.139 0.833333C78.7166 0.833333 78.516 0.972917 78.2832 1.13417C78.0363 1.30542 77.7568 1.5 77.2189 1.5C76.6809 1.5 76.4014 1.30583 76.1545 1.13417C75.9217 0.9725 75.7211 0.833333 75.2987 0.833333C74.8763 0.833333 74.6757 0.972917 74.4433 1.13417C74.1964 1.30542 73.9169 1.5 73.3789 1.5C72.841 1.5 72.5615 1.30583 72.3146 1.13417C72.0822 0.9725 71.8812 0.833333 71.4592 0.833333C71.0373 0.833333 70.8362 0.972917 70.6038 1.13417C70.3569 1.30542 70.0774 1.5 69.5395 1.5C69.0016 1.5 68.722 1.30583 68.4751 1.13417C68.2427 0.9725 68.0417 0.833333 67.6197 0.833333C67.1978 0.833333 66.9967 0.972917 66.7644 1.13417C66.5175 1.30542 66.2379 1.5 65.7 1.5C65.1621 1.5 64.8825 1.30583 64.6356 1.13417C64.4033 0.9725 64.2022 0.833333 63.7803 0.833333C63.3583 0.833333 63.1573 0.972917 62.9249 1.13417C62.678 1.30542 62.3984 1.5 61.8605 1.5C61.3226 1.5 61.0431 1.30583 60.7962 1.13417C60.5638 0.9725 60.3628 0.833333 59.9408 0.833333C59.5188 0.833333 59.3178 0.972917 59.0854 1.13417C58.8385 1.30542 58.559 1.5 58.0211 1.5C57.4831 1.5 57.2036 1.30583 56.9567 1.13417C56.7243 0.9725 56.5233 0.833333 56.1013 0.833333C55.6794 0.833333 55.4783 0.972917 55.246 1.13417C54.999 1.30542 54.7195 1.5 54.1816 1.5C53.6437 1.5 53.3641 1.30583 53.1172 1.13417C52.8849 0.9725 52.6838 0.833333 52.2614 0.833333C51.839 0.833333 51.6384 0.972917 51.406 1.13417C51.1591 1.30542 50.8796 1.5 50.3417 1.5C49.8038 1.5 49.5242 1.30583 49.2773 1.13417C49.045 0.9725 48.8439 0.833333 48.4219 0.833333C48 0.833333 47.7989 0.972917 47.5666 1.13417C47.3175 1.30583 47.0379 1.5 46.5 1.5V1.16667C46.922 1.16667 47.123 1.02708 47.3554 0.865833C47.6023 0.694583 47.8818 0.5 48.4197 0.5C48.9576 0.5 49.2372 0.694167 49.4841 0.865833C49.7165 1.0275 49.9175 1.16667 50.3399 1.16667C50.7623 1.16667 50.9629 1.02708 51.1953 0.865833C51.4422 0.694583 51.7217 0.5 52.2596 0.5C52.7976 0.5 53.0771 0.694167 53.324 0.865833C53.5564 1.0275 53.7574 1.16667 54.1794 1.16667C54.6013 1.16667 54.8024 1.02708 55.0348 0.865833C55.2817 0.694583 55.5612 0.5 56.0991 0.5C56.637 0.5 56.9166 0.694167 57.1635 0.865833C57.3958 1.0275 57.5969 1.16667 58.0189 1.16667C58.4408 1.16667 58.6419 1.02708 58.8742 0.865833C59.1211 0.694583 59.4007 0.5 59.9386 0.5C60.4765 0.5 60.756 0.694167 61.003 0.865833C61.2353 1.0275 61.4364 1.16667 61.8583 1.16667C62.2803 1.16667 62.4813 1.02708 62.7137 0.865833C62.9606 0.694583 63.2401 0.5 63.7781 0.5C64.316 0.5 64.5955 0.694167 64.8424 0.865833C65.0752 1.0275 65.2758 1.16667 65.6982 1.16667C66.1206 1.16667 66.3213 1.02708 66.5536 0.865833C66.8005 0.694583 67.0801 0.5 67.618 0.5C68.1559 0.5 68.4354 0.694167 68.6823 0.865833C68.9147 1.0275 69.1158 1.16667 69.5381 1.16667C69.9605 1.16667 70.1612 1.02708 70.3935 0.865833C70.6404 0.694583 70.92 0.5 71.4579 0.5C71.9958 0.5 72.2753 0.694167 72.5222 0.865833C72.7546 1.0275 72.9557 1.16667 73.3776 1.16667C73.7996 1.16667 74.0006 1.02708 74.2334 0.865833C74.4803 0.694583 74.7599 0.5 75.2978 0.5C75.8357 0.5 76.1152 0.694167 76.3622 0.865833C76.595 1.0275 76.7956 1.16667 77.218 1.16667C77.6404 1.16667 77.841 1.02708 78.0738 0.865833C78.3207 0.694583 78.6002 0.5 79.1381 0.5C79.6761 0.5 79.9556 0.694167 80.2025 0.865833C80.4353 1.0275 80.6359 1.16667 81.0583 1.16667C81.4807 1.16667 81.6813 1.02708 81.9137 0.865833C82.1606 0.694583 82.4402 0.5 82.9781 0.5C83.516 0.5 83.7955 0.694167 84.0424 0.865833C84.2752 1.0275 84.4758 1.16667 84.8982 1.16667C85.3206 1.16667 85.5212 1.02708 85.7541 0.865833C86.001 0.694583 86.2805 0.5 86.8184 0.5C87.3563 0.5 87.6359 0.694167 87.8828 0.865833C88.1156 1.0275 88.3162 1.16667 88.7386 1.16667C89.161 1.16667 89.3616 1.02708 89.5944 0.865833C89.8413 0.694583 90.1209 0.5 90.6588 0.5C91.1967 0.5 91.4767 0.694167 91.7236 0.865833C91.9564 1.0275 92.157 1.16667 92.5794 1.16667C93.0018 1.16667 93.2024 1.02708 93.4352 0.865833C93.6821 0.694583 93.9621 0.5 94.5 0.5V0.833333C94.0776 0.833333 93.8779 0.972917 93.6451 1.13417Z" stroke="#F992D3" mask="url(#path-1-outside-1_2803_2296)"/>
<path d="M135.645 1.13417C135.398 1.30542 135.118 1.5 134.58 1.5C134.042 1.5 133.762 1.30583 133.515 1.13417C133.283 0.9725 133.082 0.833333 132.66 0.833333C132.237 0.833333 132.037 0.972917 131.804 1.13417C131.557 1.30542 131.277 1.5 130.739 1.5C130.202 1.5 129.922 1.30583 129.675 1.13417C129.442 0.9725 129.242 0.833333 128.819 0.833333C128.397 0.833333 128.196 0.972917 127.963 1.13417C127.717 1.30542 127.437 1.5 126.899 1.5C126.361 1.5 126.082 1.30583 125.835 1.13417C125.602 0.9725 125.401 0.833333 124.979 0.833333C124.557 0.833333 124.356 0.972917 124.124 1.13417C123.877 1.30542 123.597 1.5 123.059 1.5C122.521 1.5 122.242 1.30583 121.995 1.13417C121.762 0.9725 121.561 0.833333 121.139 0.833333C120.717 0.833333 120.516 0.972917 120.283 1.13417C120.036 1.30542 119.757 1.5 119.219 1.5C118.681 1.5 118.401 1.30583 118.154 1.13417C117.922 0.9725 117.721 0.833333 117.299 0.833333C116.876 0.833333 116.676 0.972917 116.443 1.13417C116.196 1.30542 115.917 1.5 115.379 1.5C114.841 1.5 114.561 1.30583 114.315 1.13417C114.082 0.9725 113.881 0.833333 113.459 0.833333C113.037 0.833333 112.836 0.972917 112.604 1.13417C112.357 1.30542 112.077 1.5 111.539 1.5C111.002 1.5 110.722 1.30583 110.475 1.13417C110.243 0.9725 110.042 0.833333 109.62 0.833333C109.198 0.833333 108.997 0.972917 108.764 1.13417C108.517 1.30542 108.238 1.5 107.7 1.5C107.162 1.5 106.883 1.30583 106.636 1.13417C106.403 0.9725 106.202 0.833333 105.78 0.833333C105.358 0.833333 105.157 0.972917 104.925 1.13417C104.678 1.30542 104.398 1.5 103.861 1.5C103.323 1.5 103.043 1.30583 102.796 1.13417C102.564 0.9725 102.363 0.833333 101.941 0.833333C101.519 0.833333 101.318 0.972917 101.085 1.13417C100.839 1.30542 100.559 1.5 100.021 1.5C99.4831 1.5 99.2036 1.30583 98.9567 1.13417C98.7243 0.9725 98.5233 0.833333 98.1013 0.833333C97.6794 0.833333 97.4783 0.972917 97.2459 1.13417C96.999 1.30542 96.7195 1.5 96.1816 1.5C95.6437 1.5 95.3641 1.30583 95.1172 1.13417C94.8849 0.9725 94.6838 0.833333 94.2614 0.833333C93.839 0.833333 93.6384 0.972917 93.406 1.13417C93.1591 1.30542 92.8796 1.5 92.3417 1.5C91.8038 1.5 91.5242 1.30583 91.2773 1.13417C91.045 0.9725 90.8439 0.833333 90.4219 0.833333C90 0.833333 89.7989 0.972917 89.5666 1.13417C89.3175 1.30583 89.0379 1.5 88.5 1.5V1.16667C88.922 1.16667 89.123 1.02708 89.3554 0.865833C89.6023 0.694583 89.8818 0.5 90.4197 0.5C90.9576 0.5 91.2372 0.694167 91.4841 0.865833C91.7165 1.0275 91.9175 1.16667 92.3399 1.16667C92.7623 1.16667 92.9629 1.02708 93.1953 0.865833C93.4422 0.694583 93.7217 0.5 94.2597 0.5C94.7976 0.5 95.0771 0.694167 95.324 0.865833C95.5564 1.0275 95.7574 1.16667 96.1794 1.16667C96.6013 1.16667 96.8024 1.02708 97.0348 0.865833C97.2817 0.694583 97.5612 0.5 98.0991 0.5C98.637 0.5 98.9166 0.694167 99.1635 0.865833C99.3958 1.0275 99.5969 1.16667 100.019 1.16667C100.441 1.16667 100.642 1.02708 100.874 0.865833C101.121 0.694583 101.401 0.5 101.939 0.5C102.477 0.5 102.756 0.694167 103.003 0.865833C103.235 1.0275 103.436 1.16667 103.858 1.16667C104.28 1.16667 104.481 1.02708 104.714 0.865833C104.961 0.694583 105.24 0.5 105.778 0.5C106.316 0.5 106.596 0.694167 106.842 0.865833C107.075 1.0275 107.276 1.16667 107.698 1.16667C108.121 1.16667 108.321 1.02708 108.554 0.865833C108.801 0.694583 109.08 0.5 109.618 0.5C110.156 0.5 110.435 0.694167 110.682 0.865833C110.915 1.0275 111.116 1.16667 111.538 1.16667C111.961 1.16667 112.161 1.02708 112.394 0.865833C112.64 0.694583 112.92 0.5 113.458 0.5C113.996 0.5 114.275 0.694167 114.522 0.865833C114.755 1.0275 114.956 1.16667 115.378 1.16667C115.8 1.16667 116.001 1.02708 116.233 0.865833C116.48 0.694583 116.76 0.5 117.298 0.5C117.836 0.5 118.115 0.694167 118.362 0.865833C118.595 1.0275 118.796 1.16667 119.218 1.16667C119.64 1.16667 119.841 1.02708 120.074 0.865833C120.321 0.694583 120.6 0.5 121.138 0.5C121.676 0.5 121.956 0.694167 122.203 0.865833C122.435 1.0275 122.636 1.16667 123.058 1.16667C123.481 1.16667 123.681 1.02708 123.914 0.865833C124.161 0.694583 124.44 0.5 124.978 0.5C125.516 0.5 125.796 0.694167 126.042 0.865833C126.275 1.0275 126.476 1.16667 126.898 1.16667C127.321 1.16667 127.521 1.02708 127.754 0.865833C128.001 0.694583 128.281 0.5 128.818 0.5C129.356 0.5 129.636 0.694167 129.883 0.865833C130.116 1.0275 130.316 1.16667 130.739 1.16667C131.161 1.16667 131.362 1.02708 131.594 0.865833C131.841 0.694583 132.121 0.5 132.659 0.5C133.197 0.5 133.477 0.694167 133.724 0.865833C133.956 1.0275 134.157 1.16667 134.579 1.16667C135.002 1.16667 135.202 1.02708 135.435 0.865833C135.682 0.694583 135.962 0.5 136.5 0.5V0.833333C136.078 0.833333 135.878 0.972917 135.645 1.13417Z" stroke="#F992D3" mask="url(#path-1-outside-1_2803_2296)"/>
</svg>
