<svg width="50" height="2" viewBox="0 0 50 2" fill="none" xmlns="http://www.w3.org/2000/svg">
<mask id="path-1-outside-1_3004_90" maskUnits="userSpaceOnUse" x="-0.5" y="-0.5" width="50" height="3" fill="black">
<rect fill="white" x="-0.5" y="-0.5" width="50" height="3"/>
<path d="M47.6451 1.13417C47.3982 1.30542 47.1182 1.5 46.5803 1.5C46.0424 1.5 45.7624 1.30583 45.5155 1.13417C45.2827 0.9725 45.082 0.833333 44.6596 0.833333C44.2373 0.833333 44.0366 0.972917 43.8038 1.13417C43.5569 1.30542 43.2774 1.5 42.7395 1.5C42.2016 1.5 41.922 1.30583 41.6751 1.13417C41.4423 0.9725 41.2417 0.833333 40.8193 0.833333C40.3969 0.833333 40.1963 0.972917 39.9635 1.13417C39.7166 1.30542 39.437 1.5 38.8991 1.5C38.3612 1.5 38.0817 1.30583 37.8348 1.13417C37.602 0.9725 37.4013 0.833333 36.9789 0.833333C36.5565 0.833333 36.3559 0.972917 36.1236 1.13417C35.8767 1.30542 35.5971 1.5 35.0592 1.5C34.5213 1.5 34.2418 1.30583 33.9948 1.13417C33.762 0.9725 33.5614 0.833333 33.139 0.833333C32.7166 0.833333 32.516 0.972917 32.2832 1.13417C32.0363 1.30542 31.7568 1.5 31.2189 1.5C30.6809 1.5 30.4014 1.30583 30.1545 1.13417C29.9217 0.9725 29.7211 0.833333 29.2987 0.833333C28.8763 0.833333 28.6757 0.972917 28.4433 1.13417C28.1964 1.30542 27.9169 1.5 27.3789 1.5C26.841 1.5 26.5615 1.30583 26.3146 1.13417C26.0822 0.9725 25.8812 0.833333 25.4592 0.833333C25.0373 0.833333 24.8362 0.972917 24.6038 1.13417C24.3569 1.30542 24.0774 1.5 23.5395 1.5C23.0016 1.5 22.722 1.30583 22.4751 1.13417C22.2427 0.9725 22.0417 0.833333 21.6197 0.833333C21.1978 0.833333 20.9967 0.972917 20.7644 1.13417C20.5175 1.30542 20.2379 1.5 19.7 1.5C19.1621 1.5 18.8825 1.30583 18.6356 1.13417C18.4033 0.9725 18.2022 0.833333 17.7803 0.833333C17.3583 0.833333 17.1573 0.972917 16.9249 1.13417C16.678 1.30542 16.3984 1.5 15.8605 1.5C15.3226 1.5 15.0431 1.30583 14.7962 1.13417C14.5638 0.9725 14.3627 0.833333 13.9408 0.833333C13.5188 0.833333 13.3178 0.972917 13.0854 1.13417C12.8385 1.30542 12.559 1.5 12.0211 1.5C11.4831 1.5 11.2036 1.30583 10.9567 1.13417C10.7243 0.9725 10.5233 0.833333 10.1013 0.833333C9.67937 0.833333 9.47831 0.972917 9.24595 1.13417C8.99904 1.30542 8.7195 1.5 8.18159 1.5C7.64367 1.5 7.36413 1.30583 7.11722 1.13417C6.88486 0.9725 6.68381 0.833333 6.26141 0.833333C5.83902 0.833333 5.6384 0.972917 5.40604 1.13417C5.15913 1.30542 4.87959 1.5 4.34168 1.5C3.80376 1.5 3.52422 1.30583 3.27731 1.13417C3.04495 0.9725 2.84389 0.833333 2.42194 0.833333C1.99999 0.833333 1.79893 0.972917 1.56657 1.13417C1.31745 1.30583 1.03791 1.5 0.5 1.5V1.16667C0.921954 1.16667 1.12301 1.02708 1.35537 0.865833C1.60228 0.694583 1.88182 0.5 2.41974 0.5C2.95765 0.5 3.23719 0.694167 3.4841 0.865833C3.71646 1.0275 3.91752 1.16667 4.33991 1.16667C4.76231 1.16667 4.96292 1.02708 5.19528 0.865833C5.44219 0.694583 5.72173 0.5 6.25965 0.5C6.79756 0.5 7.0771 0.694167 7.32401 0.865833C7.55637 1.0275 7.75743 1.16667 8.17938 1.16667C8.60134 1.16667 8.80239 1.02708 9.03475 0.865833C9.28167 0.694583 9.5612 0.5 10.0991 0.5C10.637 0.5 10.9166 0.694167 11.1635 0.865833C11.3958 1.0275 11.5969 1.16667 12.0189 1.16667C12.4408 1.16667 12.6419 1.02708 12.8742 0.865833C13.1211 0.694583 13.4007 0.5 13.9386 0.5C14.4765 0.5 14.756 0.694167 15.003 0.865833C15.2353 1.0275 15.4364 1.16667 15.8583 1.16667C16.2803 1.16667 16.4813 1.02708 16.7137 0.865833C16.9606 0.694583 17.2401 0.5 17.7781 0.5C18.316 0.5 18.5955 0.694167 18.8424 0.865833C19.0752 1.0275 19.2758 1.16667 19.6982 1.16667C20.1206 1.16667 20.3212 1.02708 20.5536 0.865833C20.8005 0.694583 21.0801 0.5 21.618 0.5C22.1559 0.5 22.4354 0.694167 22.6823 0.865833C22.9147 1.0275 23.1158 1.16667 23.5381 1.16667C23.9605 1.16667 24.1612 1.02708 24.3935 0.865833C24.6404 0.694583 24.92 0.5 25.4579 0.5C25.9958 0.5 26.2753 0.694167 26.5222 0.865833C26.7546 1.0275 26.9557 1.16667 27.3776 1.16667C27.7996 1.16667 28.0006 1.02708 28.2334 0.865833C28.4803 0.694583 28.7599 0.5 29.2978 0.5C29.8357 0.5 30.1152 0.694167 30.3622 0.865833C30.595 1.0275 30.7956 1.16667 31.218 1.16667C31.6404 1.16667 31.841 1.02708 32.0738 0.865833C32.3207 0.694583 32.6002 0.5 33.1381 0.5C33.6761 0.5 33.9556 0.694167 34.2025 0.865833C34.4353 1.0275 34.6359 1.16667 35.0583 1.16667C35.4807 1.16667 35.6813 1.02708 35.9137 0.865833C36.1606 0.694583 36.4401 0.5 36.9781 0.5C37.516 0.5 37.7955 0.694167 38.0424 0.865833C38.2752 1.0275 38.4758 1.16667 38.8982 1.16667C39.3206 1.16667 39.5212 1.02708 39.754 0.865833C40.001 0.694583 40.2805 0.5 40.8184 0.5C41.3563 0.5 41.6359 0.694167 41.8828 0.865833C42.1156 1.0275 42.3162 1.16667 42.7386 1.16667C43.161 1.16667 43.3616 1.02708 43.5944 0.865833C43.8413 0.694583 44.1209 0.5 44.6588 0.5C45.1967 0.5 45.4767 0.694167 45.7236 0.865833C45.9564 1.0275 46.157 1.16667 46.5794 1.16667C47.0018 1.16667 47.2024 1.02708 47.4352 0.865833C47.6821 0.694583 47.9621 0.5 48.5 0.5V0.833333C48.0776 0.833333 47.877 0.972917 47.6442 1.13417H47.6451Z"/>
</mask>
<path d="M47.6451 1.13417C47.3982 1.30542 47.1182 1.5 46.5803 1.5C46.0424 1.5 45.7624 1.30583 45.5155 1.13417C45.2827 0.9725 45.082 0.833333 44.6596 0.833333C44.2373 0.833333 44.0366 0.972917 43.8038 1.13417C43.5569 1.30542 43.2774 1.5 42.7395 1.5C42.2016 1.5 41.922 1.30583 41.6751 1.13417C41.4423 0.9725 41.2417 0.833333 40.8193 0.833333C40.3969 0.833333 40.1963 0.972917 39.9635 1.13417C39.7166 1.30542 39.437 1.5 38.8991 1.5C38.3612 1.5 38.0817 1.30583 37.8348 1.13417C37.602 0.9725 37.4013 0.833333 36.9789 0.833333C36.5565 0.833333 36.3559 0.972917 36.1236 1.13417C35.8767 1.30542 35.5971 1.5 35.0592 1.5C34.5213 1.5 34.2418 1.30583 33.9948 1.13417C33.762 0.9725 33.5614 0.833333 33.139 0.833333C32.7166 0.833333 32.516 0.972917 32.2832 1.13417C32.0363 1.30542 31.7568 1.5 31.2189 1.5C30.6809 1.5 30.4014 1.30583 30.1545 1.13417C29.9217 0.9725 29.7211 0.833333 29.2987 0.833333C28.8763 0.833333 28.6757 0.972917 28.4433 1.13417C28.1964 1.30542 27.9169 1.5 27.3789 1.5C26.841 1.5 26.5615 1.30583 26.3146 1.13417C26.0822 0.9725 25.8812 0.833333 25.4592 0.833333C25.0373 0.833333 24.8362 0.972917 24.6038 1.13417C24.3569 1.30542 24.0774 1.5 23.5395 1.5C23.0016 1.5 22.722 1.30583 22.4751 1.13417C22.2427 0.9725 22.0417 0.833333 21.6197 0.833333C21.1978 0.833333 20.9967 0.972917 20.7644 1.13417C20.5175 1.30542 20.2379 1.5 19.7 1.5C19.1621 1.5 18.8825 1.30583 18.6356 1.13417C18.4033 0.9725 18.2022 0.833333 17.7803 0.833333C17.3583 0.833333 17.1573 0.972917 16.9249 1.13417C16.678 1.30542 16.3984 1.5 15.8605 1.5C15.3226 1.5 15.0431 1.30583 14.7962 1.13417C14.5638 0.9725 14.3627 0.833333 13.9408 0.833333C13.5188 0.833333 13.3178 0.972917 13.0854 1.13417C12.8385 1.30542 12.559 1.5 12.0211 1.5C11.4831 1.5 11.2036 1.30583 10.9567 1.13417C10.7243 0.9725 10.5233 0.833333 10.1013 0.833333C9.67937 0.833333 9.47831 0.972917 9.24595 1.13417C8.99904 1.30542 8.7195 1.5 8.18159 1.5C7.64367 1.5 7.36413 1.30583 7.11722 1.13417C6.88486 0.9725 6.68381 0.833333 6.26141 0.833333C5.83902 0.833333 5.6384 0.972917 5.40604 1.13417C5.15913 1.30542 4.87959 1.5 4.34168 1.5C3.80376 1.5 3.52422 1.30583 3.27731 1.13417C3.04495 0.9725 2.84389 0.833333 2.42194 0.833333C1.99999 0.833333 1.79893 0.972917 1.56657 1.13417C1.31745 1.30583 1.03791 1.5 0.5 1.5V1.16667C0.921954 1.16667 1.12301 1.02708 1.35537 0.865833C1.60228 0.694583 1.88182 0.5 2.41974 0.5C2.95765 0.5 3.23719 0.694167 3.4841 0.865833C3.71646 1.0275 3.91752 1.16667 4.33991 1.16667C4.76231 1.16667 4.96292 1.02708 5.19528 0.865833C5.44219 0.694583 5.72173 0.5 6.25965 0.5C6.79756 0.5 7.0771 0.694167 7.32401 0.865833C7.55637 1.0275 7.75743 1.16667 8.17938 1.16667C8.60134 1.16667 8.80239 1.02708 9.03475 0.865833C9.28167 0.694583 9.5612 0.5 10.0991 0.5C10.637 0.5 10.9166 0.694167 11.1635 0.865833C11.3958 1.0275 11.5969 1.16667 12.0189 1.16667C12.4408 1.16667 12.6419 1.02708 12.8742 0.865833C13.1211 0.694583 13.4007 0.5 13.9386 0.5C14.4765 0.5 14.756 0.694167 15.003 0.865833C15.2353 1.0275 15.4364 1.16667 15.8583 1.16667C16.2803 1.16667 16.4813 1.02708 16.7137 0.865833C16.9606 0.694583 17.2401 0.5 17.7781 0.5C18.316 0.5 18.5955 0.694167 18.8424 0.865833C19.0752 1.0275 19.2758 1.16667 19.6982 1.16667C20.1206 1.16667 20.3212 1.02708 20.5536 0.865833C20.8005 0.694583 21.0801 0.5 21.618 0.5C22.1559 0.5 22.4354 0.694167 22.6823 0.865833C22.9147 1.0275 23.1158 1.16667 23.5381 1.16667C23.9605 1.16667 24.1612 1.02708 24.3935 0.865833C24.6404 0.694583 24.92 0.5 25.4579 0.5C25.9958 0.5 26.2753 0.694167 26.5222 0.865833C26.7546 1.0275 26.9557 1.16667 27.3776 1.16667C27.7996 1.16667 28.0006 1.02708 28.2334 0.865833C28.4803 0.694583 28.7599 0.5 29.2978 0.5C29.8357 0.5 30.1152 0.694167 30.3622 0.865833C30.595 1.0275 30.7956 1.16667 31.218 1.16667C31.6404 1.16667 31.841 1.02708 32.0738 0.865833C32.3207 0.694583 32.6002 0.5 33.1381 0.5C33.6761 0.5 33.9556 0.694167 34.2025 0.865833C34.4353 1.0275 34.6359 1.16667 35.0583 1.16667C35.4807 1.16667 35.6813 1.02708 35.9137 0.865833C36.1606 0.694583 36.4401 0.5 36.9781 0.5C37.516 0.5 37.7955 0.694167 38.0424 0.865833C38.2752 1.0275 38.4758 1.16667 38.8982 1.16667C39.3206 1.16667 39.5212 1.02708 39.754 0.865833C40.001 0.694583 40.2805 0.5 40.8184 0.5C41.3563 0.5 41.6359 0.694167 41.8828 0.865833C42.1156 1.0275 42.3162 1.16667 42.7386 1.16667C43.161 1.16667 43.3616 1.02708 43.5944 0.865833C43.8413 0.694583 44.1209 0.5 44.6588 0.5C45.1967 0.5 45.4767 0.694167 45.7236 0.865833C45.9564 1.0275 46.157 1.16667 46.5794 1.16667C47.0018 1.16667 47.2024 1.02708 47.4352 0.865833C47.6821 0.694583 47.9621 0.5 48.5 0.5V0.833333C48.0776 0.833333 47.877 0.972917 47.6442 1.13417H47.6451Z" fill="#F992D3"/>
<path d="M47.6451 1.13417C47.3982 1.30542 47.1182 1.5 46.5803 1.5C46.0424 1.5 45.7624 1.30583 45.5155 1.13417C45.2827 0.9725 45.082 0.833333 44.6596 0.833333C44.2373 0.833333 44.0366 0.972917 43.8038 1.13417C43.5569 1.30542 43.2774 1.5 42.7395 1.5C42.2016 1.5 41.922 1.30583 41.6751 1.13417C41.4423 0.9725 41.2417 0.833333 40.8193 0.833333C40.3969 0.833333 40.1963 0.972917 39.9635 1.13417C39.7166 1.30542 39.437 1.5 38.8991 1.5C38.3612 1.5 38.0817 1.30583 37.8348 1.13417C37.602 0.9725 37.4013 0.833333 36.9789 0.833333C36.5565 0.833333 36.3559 0.972917 36.1236 1.13417C35.8767 1.30542 35.5971 1.5 35.0592 1.5C34.5213 1.5 34.2418 1.30583 33.9948 1.13417C33.762 0.9725 33.5614 0.833333 33.139 0.833333C32.7166 0.833333 32.516 0.972917 32.2832 1.13417C32.0363 1.30542 31.7568 1.5 31.2189 1.5C30.6809 1.5 30.4014 1.30583 30.1545 1.13417C29.9217 0.9725 29.7211 0.833333 29.2987 0.833333C28.8763 0.833333 28.6757 0.972917 28.4433 1.13417C28.1964 1.30542 27.9169 1.5 27.3789 1.5C26.841 1.5 26.5615 1.30583 26.3146 1.13417C26.0822 0.9725 25.8812 0.833333 25.4592 0.833333C25.0373 0.833333 24.8362 0.972917 24.6038 1.13417C24.3569 1.30542 24.0774 1.5 23.5395 1.5C23.0016 1.5 22.722 1.30583 22.4751 1.13417C22.2427 0.9725 22.0417 0.833333 21.6197 0.833333C21.1978 0.833333 20.9967 0.972917 20.7644 1.13417C20.5175 1.30542 20.2379 1.5 19.7 1.5C19.1621 1.5 18.8825 1.30583 18.6356 1.13417C18.4033 0.9725 18.2022 0.833333 17.7803 0.833333C17.3583 0.833333 17.1573 0.972917 16.9249 1.13417C16.678 1.30542 16.3984 1.5 15.8605 1.5C15.3226 1.5 15.0431 1.30583 14.7962 1.13417C14.5638 0.9725 14.3627 0.833333 13.9408 0.833333C13.5188 0.833333 13.3178 0.972917 13.0854 1.13417C12.8385 1.30542 12.559 1.5 12.0211 1.5C11.4831 1.5 11.2036 1.30583 10.9567 1.13417C10.7243 0.9725 10.5233 0.833333 10.1013 0.833333C9.67937 0.833333 9.47831 0.972917 9.24595 1.13417C8.99904 1.30542 8.7195 1.5 8.18159 1.5C7.64367 1.5 7.36413 1.30583 7.11722 1.13417C6.88486 0.9725 6.68381 0.833333 6.26141 0.833333C5.83902 0.833333 5.6384 0.972917 5.40604 1.13417C5.15913 1.30542 4.87959 1.5 4.34168 1.5C3.80376 1.5 3.52422 1.30583 3.27731 1.13417C3.04495 0.9725 2.84389 0.833333 2.42194 0.833333C1.99999 0.833333 1.79893 0.972917 1.56657 1.13417C1.31745 1.30583 1.03791 1.5 0.5 1.5V1.16667C0.921954 1.16667 1.12301 1.02708 1.35537 0.865833C1.60228 0.694583 1.88182 0.5 2.41974 0.5C2.95765 0.5 3.23719 0.694167 3.4841 0.865833C3.71646 1.0275 3.91752 1.16667 4.33991 1.16667C4.76231 1.16667 4.96292 1.02708 5.19528 0.865833C5.44219 0.694583 5.72173 0.5 6.25965 0.5C6.79756 0.5 7.0771 0.694167 7.32401 0.865833C7.55637 1.0275 7.75743 1.16667 8.17938 1.16667C8.60134 1.16667 8.80239 1.02708 9.03475 0.865833C9.28167 0.694583 9.5612 0.5 10.0991 0.5C10.637 0.5 10.9166 0.694167 11.1635 0.865833C11.3958 1.0275 11.5969 1.16667 12.0189 1.16667C12.4408 1.16667 12.6419 1.02708 12.8742 0.865833C13.1211 0.694583 13.4007 0.5 13.9386 0.5C14.4765 0.5 14.756 0.694167 15.003 0.865833C15.2353 1.0275 15.4364 1.16667 15.8583 1.16667C16.2803 1.16667 16.4813 1.02708 16.7137 0.865833C16.9606 0.694583 17.2401 0.5 17.7781 0.5C18.316 0.5 18.5955 0.694167 18.8424 0.865833C19.0752 1.0275 19.2758 1.16667 19.6982 1.16667C20.1206 1.16667 20.3212 1.02708 20.5536 0.865833C20.8005 0.694583 21.0801 0.5 21.618 0.5C22.1559 0.5 22.4354 0.694167 22.6823 0.865833C22.9147 1.0275 23.1158 1.16667 23.5381 1.16667C23.9605 1.16667 24.1612 1.02708 24.3935 0.865833C24.6404 0.694583 24.92 0.5 25.4579 0.5C25.9958 0.5 26.2753 0.694167 26.5222 0.865833C26.7546 1.0275 26.9557 1.16667 27.3776 1.16667C27.7996 1.16667 28.0006 1.02708 28.2334 0.865833C28.4803 0.694583 28.7599 0.5 29.2978 0.5C29.8357 0.5 30.1152 0.694167 30.3622 0.865833C30.595 1.0275 30.7956 1.16667 31.218 1.16667C31.6404 1.16667 31.841 1.02708 32.0738 0.865833C32.3207 0.694583 32.6002 0.5 33.1381 0.5C33.6761 0.5 33.9556 0.694167 34.2025 0.865833C34.4353 1.0275 34.6359 1.16667 35.0583 1.16667C35.4807 1.16667 35.6813 1.02708 35.9137 0.865833C36.1606 0.694583 36.4401 0.5 36.9781 0.5C37.516 0.5 37.7955 0.694167 38.0424 0.865833C38.2752 1.0275 38.4758 1.16667 38.8982 1.16667C39.3206 1.16667 39.5212 1.02708 39.754 0.865833C40.001 0.694583 40.2805 0.5 40.8184 0.5C41.3563 0.5 41.6359 0.694167 41.8828 0.865833C42.1156 1.0275 42.3162 1.16667 42.7386 1.16667C43.161 1.16667 43.3616 1.02708 43.5944 0.865833C43.8413 0.694583 44.1209 0.5 44.6588 0.5C45.1967 0.5 45.4767 0.694167 45.7236 0.865833C45.9564 1.0275 46.157 1.16667 46.5794 1.16667C47.0018 1.16667 47.2024 1.02708 47.4352 0.865833C47.6821 0.694583 47.9621 0.5 48.5 0.5V0.833333C48.0776 0.833333 47.877 0.972917 47.6442 1.13417H47.6451Z" stroke="#F992D3" mask="url(#path-1-outside-1_3004_90)"/>
</svg>
