<svg width="58" height="2" viewBox="0 0 58 2" fill="none" xmlns="http://www.w3.org/2000/svg">
<mask id="path-1-outside-1_2803_2327" maskUnits="userSpaceOnUse" x="-0.5" y="-0.5" width="58" height="3" fill="black">
<rect fill="white" x="-0.5" y="-0.5" width="58" height="3"/>
<path d="M55.5026 1.13417C55.2145 1.30542 54.8879 1.5 54.2603 1.5C53.6327 1.5 53.3061 1.30583 53.018 1.13417C52.7464 0.9725 52.5124 0.833333 52.0196 0.833333C51.5268 0.833333 51.2927 0.972917 51.0211 1.13417C50.7331 1.30542 50.407 1.5 49.7794 1.5C49.1518 1.5 48.8257 1.30583 48.5376 1.13417C48.266 0.9725 48.032 0.833333 47.5392 0.833333C47.0464 0.833333 46.8123 0.972917 46.5407 1.13417C46.2527 1.30542 45.9265 1.5 45.299 1.5C44.6714 1.5 44.3453 1.30583 44.0572 1.13417C43.7856 0.9725 43.5516 0.833333 43.0588 0.833333C42.566 0.833333 42.3319 0.972917 42.0608 1.13417C41.7728 1.30542 41.4466 1.5 40.8191 1.5C40.1915 1.5 39.8654 1.30583 39.5773 1.13417C39.3057 0.9725 39.0717 0.833333 38.5789 0.833333C38.0861 0.833333 37.852 0.972917 37.5804 1.13417C37.2924 1.30542 36.9662 1.5 36.3387 1.5C35.7111 1.5 35.385 1.30583 35.0969 1.13417C34.8253 0.9725 34.5912 0.833333 34.0985 0.833333C33.6057 0.833333 33.3716 0.972917 33.1005 1.13417C32.8125 1.30542 32.4863 1.5 31.8588 1.5C31.2312 1.5 30.9051 1.30583 30.617 1.13417C30.3459 0.9725 30.1114 0.833333 29.6191 0.833333C29.1268 0.833333 28.8922 0.972917 28.6211 1.13417C28.3331 1.30542 28.0069 1.5 27.3794 1.5C26.7518 1.5 26.4257 1.30583 26.1376 1.13417C25.8665 0.9725 25.632 0.833333 25.1397 0.833333C24.6474 0.833333 24.4128 0.972917 24.1418 1.13417C23.8537 1.30542 23.5276 1.5 22.9 1.5C22.2724 1.5 21.9463 1.30583 21.6582 1.13417C21.3872 0.9725 21.1526 0.833333 20.6603 0.833333C20.168 0.833333 19.9335 0.972917 19.6624 1.13417C19.3743 1.30542 19.0482 1.5 18.4206 1.5C17.7931 1.5 17.4669 1.30583 17.1789 1.13417C16.9078 0.9725 16.6732 0.833333 16.1809 0.833333C15.6886 0.833333 15.4541 0.972917 15.183 1.13417C14.8949 1.30542 14.5688 1.5 13.9412 1.5C13.3137 1.5 12.9875 1.30583 12.6995 1.13417C12.4284 0.9725 12.1938 0.833333 11.7015 0.833333C11.2093 0.833333 10.9747 0.972917 10.7036 1.13417C10.4155 1.30542 10.0894 1.5 9.46185 1.5C8.83429 1.5 8.50816 1.30583 8.22009 1.13417C7.94901 0.9725 7.71444 0.833333 7.22165 0.833333C6.72885 0.833333 6.4948 0.972917 6.22371 1.13417C5.93565 1.30542 5.60952 1.5 4.98195 1.5C4.35439 1.5 4.02826 1.30583 3.7402 1.13417C3.46911 0.9725 3.23454 0.833333 2.74226 0.833333C2.24998 0.833333 2.01542 0.972917 1.74433 1.13417C1.45369 1.30583 1.12757 1.5 0.5 1.5V1.16667C0.992279 1.16667 1.22685 1.02708 1.49793 0.865833C1.786 0.694583 2.11213 0.5 2.73969 0.5C3.36726 0.5 3.69339 0.694167 3.98145 0.865833C4.25254 1.0275 4.4871 1.16667 4.9799 1.16667C5.47269 1.16667 5.70674 1.02708 5.97783 0.865833C6.26589 0.694583 6.59202 0.5 7.21959 0.5C7.84715 0.5 8.17328 0.694167 8.46135 0.865833C8.73243 1.0275 8.967 1.16667 9.45928 1.16667C9.95156 1.16667 10.1861 1.02708 10.4572 0.865833C10.7453 0.694583 11.0714 0.5 11.699 0.5C12.3265 0.5 12.6527 0.694167 12.9407 0.865833C13.2118 1.0275 13.4464 1.16667 13.9387 1.16667C14.4309 1.16667 14.6655 1.02708 14.9366 0.865833C15.2247 0.694583 15.5508 0.5 16.1784 0.5C16.8059 0.5 17.132 0.694167 17.4201 0.865833C17.6912 1.0275 17.9258 1.16667 18.418 1.16667C18.9103 1.16667 19.1449 1.02708 19.416 0.865833C19.704 0.694583 20.0302 0.5 20.6577 0.5C21.2853 0.5 21.6114 0.694167 21.8995 0.865833C22.1711 1.0275 22.4051 1.16667 22.8979 1.16667C23.3907 1.16667 23.6248 1.02708 23.8959 0.865833C24.1839 0.694583 24.5101 0.5 25.1376 0.5C25.7652 0.5 26.0913 0.694167 26.3794 0.865833C26.6505 1.0275 26.885 1.16667 27.3778 1.16667C27.8706 1.16667 28.1047 1.02708 28.3758 0.865833C28.6638 0.694583 28.99 0.5 29.6175 0.5C30.2451 0.5 30.5712 0.694167 30.8593 0.865833C31.1304 1.0275 31.3649 1.16667 31.8572 1.16667C32.3495 1.16667 32.5841 1.02708 32.8557 0.865833C33.1437 0.694583 33.4699 0.5 34.0974 0.5C34.725 0.5 35.0511 0.694167 35.3392 0.865833C35.6108 1.0275 35.8448 1.16667 36.3376 1.16667C36.8304 1.16667 37.0645 1.02708 37.3361 0.865833C37.6241 0.694583 37.9503 0.5 38.5778 0.5C39.2054 0.5 39.5315 0.694167 39.8196 0.865833C40.0912 1.0275 40.3252 1.16667 40.818 1.16667C41.3108 1.16667 41.5449 1.02708 41.816 0.865833C42.104 0.694583 42.4302 0.5 43.0577 0.5C43.6853 0.5 44.0114 0.694167 44.2995 0.865833C44.5711 1.0275 44.8051 1.16667 45.2979 1.16667C45.7907 1.16667 46.0248 1.02708 46.2964 0.865833C46.5845 0.694583 46.9106 0.5 47.5381 0.5C48.1657 0.5 48.4918 0.694167 48.7799 0.865833C49.0515 1.0275 49.2856 1.16667 49.7784 1.16667C50.2711 1.16667 50.5052 1.02708 50.7768 0.865833C51.0649 0.694583 51.391 0.5 52.0186 0.5C52.6461 0.5 52.9728 0.694167 53.2608 0.865833C53.5324 1.0275 53.7665 1.16667 54.2593 1.16667C54.7521 1.16667 54.9861 1.02708 55.2577 0.865833C55.5458 0.694583 55.8724 0.5 56.5 0.5V0.833333C56.0072 0.833333 55.7732 0.972917 55.5016 1.13417H55.5026Z"/>
</mask>
<path d="M55.5026 1.13417C55.2145 1.30542 54.8879 1.5 54.2603 1.5C53.6327 1.5 53.3061 1.30583 53.018 1.13417C52.7464 0.9725 52.5124 0.833333 52.0196 0.833333C51.5268 0.833333 51.2927 0.972917 51.0211 1.13417C50.7331 1.30542 50.407 1.5 49.7794 1.5C49.1518 1.5 48.8257 1.30583 48.5376 1.13417C48.266 0.9725 48.032 0.833333 47.5392 0.833333C47.0464 0.833333 46.8123 0.972917 46.5407 1.13417C46.2527 1.30542 45.9265 1.5 45.299 1.5C44.6714 1.5 44.3453 1.30583 44.0572 1.13417C43.7856 0.9725 43.5516 0.833333 43.0588 0.833333C42.566 0.833333 42.3319 0.972917 42.0608 1.13417C41.7728 1.30542 41.4466 1.5 40.8191 1.5C40.1915 1.5 39.8654 1.30583 39.5773 1.13417C39.3057 0.9725 39.0717 0.833333 38.5789 0.833333C38.0861 0.833333 37.852 0.972917 37.5804 1.13417C37.2924 1.30542 36.9662 1.5 36.3387 1.5C35.7111 1.5 35.385 1.30583 35.0969 1.13417C34.8253 0.9725 34.5912 0.833333 34.0985 0.833333C33.6057 0.833333 33.3716 0.972917 33.1005 1.13417C32.8125 1.30542 32.4863 1.5 31.8588 1.5C31.2312 1.5 30.9051 1.30583 30.617 1.13417C30.3459 0.9725 30.1114 0.833333 29.6191 0.833333C29.1268 0.833333 28.8922 0.972917 28.6211 1.13417C28.3331 1.30542 28.0069 1.5 27.3794 1.5C26.7518 1.5 26.4257 1.30583 26.1376 1.13417C25.8665 0.9725 25.632 0.833333 25.1397 0.833333C24.6474 0.833333 24.4128 0.972917 24.1418 1.13417C23.8537 1.30542 23.5276 1.5 22.9 1.5C22.2724 1.5 21.9463 1.30583 21.6582 1.13417C21.3872 0.9725 21.1526 0.833333 20.6603 0.833333C20.168 0.833333 19.9335 0.972917 19.6624 1.13417C19.3743 1.30542 19.0482 1.5 18.4206 1.5C17.7931 1.5 17.4669 1.30583 17.1789 1.13417C16.9078 0.9725 16.6732 0.833333 16.1809 0.833333C15.6886 0.833333 15.4541 0.972917 15.183 1.13417C14.8949 1.30542 14.5688 1.5 13.9412 1.5C13.3137 1.5 12.9875 1.30583 12.6995 1.13417C12.4284 0.9725 12.1938 0.833333 11.7015 0.833333C11.2093 0.833333 10.9747 0.972917 10.7036 1.13417C10.4155 1.30542 10.0894 1.5 9.46185 1.5C8.83429 1.5 8.50816 1.30583 8.22009 1.13417C7.94901 0.9725 7.71444 0.833333 7.22165 0.833333C6.72885 0.833333 6.4948 0.972917 6.22371 1.13417C5.93565 1.30542 5.60952 1.5 4.98195 1.5C4.35439 1.5 4.02826 1.30583 3.7402 1.13417C3.46911 0.9725 3.23454 0.833333 2.74226 0.833333C2.24998 0.833333 2.01542 0.972917 1.74433 1.13417C1.45369 1.30583 1.12757 1.5 0.5 1.5V1.16667C0.992279 1.16667 1.22685 1.02708 1.49793 0.865833C1.786 0.694583 2.11213 0.5 2.73969 0.5C3.36726 0.5 3.69339 0.694167 3.98145 0.865833C4.25254 1.0275 4.4871 1.16667 4.9799 1.16667C5.47269 1.16667 5.70674 1.02708 5.97783 0.865833C6.26589 0.694583 6.59202 0.5 7.21959 0.5C7.84715 0.5 8.17328 0.694167 8.46135 0.865833C8.73243 1.0275 8.967 1.16667 9.45928 1.16667C9.95156 1.16667 10.1861 1.02708 10.4572 0.865833C10.7453 0.694583 11.0714 0.5 11.699 0.5C12.3265 0.5 12.6527 0.694167 12.9407 0.865833C13.2118 1.0275 13.4464 1.16667 13.9387 1.16667C14.4309 1.16667 14.6655 1.02708 14.9366 0.865833C15.2247 0.694583 15.5508 0.5 16.1784 0.5C16.8059 0.5 17.132 0.694167 17.4201 0.865833C17.6912 1.0275 17.9258 1.16667 18.418 1.16667C18.9103 1.16667 19.1449 1.02708 19.416 0.865833C19.704 0.694583 20.0302 0.5 20.6577 0.5C21.2853 0.5 21.6114 0.694167 21.8995 0.865833C22.1711 1.0275 22.4051 1.16667 22.8979 1.16667C23.3907 1.16667 23.6248 1.02708 23.8959 0.865833C24.1839 0.694583 24.5101 0.5 25.1376 0.5C25.7652 0.5 26.0913 0.694167 26.3794 0.865833C26.6505 1.0275 26.885 1.16667 27.3778 1.16667C27.8706 1.16667 28.1047 1.02708 28.3758 0.865833C28.6638 0.694583 28.99 0.5 29.6175 0.5C30.2451 0.5 30.5712 0.694167 30.8593 0.865833C31.1304 1.0275 31.3649 1.16667 31.8572 1.16667C32.3495 1.16667 32.5841 1.02708 32.8557 0.865833C33.1437 0.694583 33.4699 0.5 34.0974 0.5C34.725 0.5 35.0511 0.694167 35.3392 0.865833C35.6108 1.0275 35.8448 1.16667 36.3376 1.16667C36.8304 1.16667 37.0645 1.02708 37.3361 0.865833C37.6241 0.694583 37.9503 0.5 38.5778 0.5C39.2054 0.5 39.5315 0.694167 39.8196 0.865833C40.0912 1.0275 40.3252 1.16667 40.818 1.16667C41.3108 1.16667 41.5449 1.02708 41.816 0.865833C42.104 0.694583 42.4302 0.5 43.0577 0.5C43.6853 0.5 44.0114 0.694167 44.2995 0.865833C44.5711 1.0275 44.8051 1.16667 45.2979 1.16667C45.7907 1.16667 46.0248 1.02708 46.2964 0.865833C46.5845 0.694583 46.9106 0.5 47.5381 0.5C48.1657 0.5 48.4918 0.694167 48.7799 0.865833C49.0515 1.0275 49.2856 1.16667 49.7784 1.16667C50.2711 1.16667 50.5052 1.02708 50.7768 0.865833C51.0649 0.694583 51.391 0.5 52.0186 0.5C52.6461 0.5 52.9728 0.694167 53.2608 0.865833C53.5324 1.0275 53.7665 1.16667 54.2593 1.16667C54.7521 1.16667 54.9861 1.02708 55.2577 0.865833C55.5458 0.694583 55.8724 0.5 56.5 0.5V0.833333C56.0072 0.833333 55.7732 0.972917 55.5016 1.13417H55.5026Z" fill="#F992D3"/>
<path d="M55.5026 1.13417C55.2145 1.30542 54.8879 1.5 54.2603 1.5C53.6327 1.5 53.3061 1.30583 53.018 1.13417C52.7464 0.9725 52.5124 0.833333 52.0196 0.833333C51.5268 0.833333 51.2927 0.972917 51.0211 1.13417C50.7331 1.30542 50.407 1.5 49.7794 1.5C49.1518 1.5 48.8257 1.30583 48.5376 1.13417C48.266 0.9725 48.032 0.833333 47.5392 0.833333C47.0464 0.833333 46.8123 0.972917 46.5407 1.13417C46.2527 1.30542 45.9265 1.5 45.299 1.5C44.6714 1.5 44.3453 1.30583 44.0572 1.13417C43.7856 0.9725 43.5516 0.833333 43.0588 0.833333C42.566 0.833333 42.3319 0.972917 42.0608 1.13417C41.7728 1.30542 41.4466 1.5 40.8191 1.5C40.1915 1.5 39.8654 1.30583 39.5773 1.13417C39.3057 0.9725 39.0717 0.833333 38.5789 0.833333C38.0861 0.833333 37.852 0.972917 37.5804 1.13417C37.2924 1.30542 36.9662 1.5 36.3387 1.5C35.7111 1.5 35.385 1.30583 35.0969 1.13417C34.8253 0.9725 34.5912 0.833333 34.0985 0.833333C33.6057 0.833333 33.3716 0.972917 33.1005 1.13417C32.8125 1.30542 32.4863 1.5 31.8588 1.5C31.2312 1.5 30.9051 1.30583 30.617 1.13417C30.3459 0.9725 30.1114 0.833333 29.6191 0.833333C29.1268 0.833333 28.8922 0.972917 28.6211 1.13417C28.3331 1.30542 28.0069 1.5 27.3794 1.5C26.7518 1.5 26.4257 1.30583 26.1376 1.13417C25.8665 0.9725 25.632 0.833333 25.1397 0.833333C24.6474 0.833333 24.4128 0.972917 24.1418 1.13417C23.8537 1.30542 23.5276 1.5 22.9 1.5C22.2724 1.5 21.9463 1.30583 21.6582 1.13417C21.3872 0.9725 21.1526 0.833333 20.6603 0.833333C20.168 0.833333 19.9335 0.972917 19.6624 1.13417C19.3743 1.30542 19.0482 1.5 18.4206 1.5C17.7931 1.5 17.4669 1.30583 17.1789 1.13417C16.9078 0.9725 16.6732 0.833333 16.1809 0.833333C15.6886 0.833333 15.4541 0.972917 15.183 1.13417C14.8949 1.30542 14.5688 1.5 13.9412 1.5C13.3137 1.5 12.9875 1.30583 12.6995 1.13417C12.4284 0.9725 12.1938 0.833333 11.7015 0.833333C11.2093 0.833333 10.9747 0.972917 10.7036 1.13417C10.4155 1.30542 10.0894 1.5 9.46185 1.5C8.83429 1.5 8.50816 1.30583 8.22009 1.13417C7.94901 0.9725 7.71444 0.833333 7.22165 0.833333C6.72885 0.833333 6.4948 0.972917 6.22371 1.13417C5.93565 1.30542 5.60952 1.5 4.98195 1.5C4.35439 1.5 4.02826 1.30583 3.7402 1.13417C3.46911 0.9725 3.23454 0.833333 2.74226 0.833333C2.24998 0.833333 2.01542 0.972917 1.74433 1.13417C1.45369 1.30583 1.12757 1.5 0.5 1.5V1.16667C0.992279 1.16667 1.22685 1.02708 1.49793 0.865833C1.786 0.694583 2.11213 0.5 2.73969 0.5C3.36726 0.5 3.69339 0.694167 3.98145 0.865833C4.25254 1.0275 4.4871 1.16667 4.9799 1.16667C5.47269 1.16667 5.70674 1.02708 5.97783 0.865833C6.26589 0.694583 6.59202 0.5 7.21959 0.5C7.84715 0.5 8.17328 0.694167 8.46135 0.865833C8.73243 1.0275 8.967 1.16667 9.45928 1.16667C9.95156 1.16667 10.1861 1.02708 10.4572 0.865833C10.7453 0.694583 11.0714 0.5 11.699 0.5C12.3265 0.5 12.6527 0.694167 12.9407 0.865833C13.2118 1.0275 13.4464 1.16667 13.9387 1.16667C14.4309 1.16667 14.6655 1.02708 14.9366 0.865833C15.2247 0.694583 15.5508 0.5 16.1784 0.5C16.8059 0.5 17.132 0.694167 17.4201 0.865833C17.6912 1.0275 17.9258 1.16667 18.418 1.16667C18.9103 1.16667 19.1449 1.02708 19.416 0.865833C19.704 0.694583 20.0302 0.5 20.6577 0.5C21.2853 0.5 21.6114 0.694167 21.8995 0.865833C22.1711 1.0275 22.4051 1.16667 22.8979 1.16667C23.3907 1.16667 23.6248 1.02708 23.8959 0.865833C24.1839 0.694583 24.5101 0.5 25.1376 0.5C25.7652 0.5 26.0913 0.694167 26.3794 0.865833C26.6505 1.0275 26.885 1.16667 27.3778 1.16667C27.8706 1.16667 28.1047 1.02708 28.3758 0.865833C28.6638 0.694583 28.99 0.5 29.6175 0.5C30.2451 0.5 30.5712 0.694167 30.8593 0.865833C31.1304 1.0275 31.3649 1.16667 31.8572 1.16667C32.3495 1.16667 32.5841 1.02708 32.8557 0.865833C33.1437 0.694583 33.4699 0.5 34.0974 0.5C34.725 0.5 35.0511 0.694167 35.3392 0.865833C35.6108 1.0275 35.8448 1.16667 36.3376 1.16667C36.8304 1.16667 37.0645 1.02708 37.3361 0.865833C37.6241 0.694583 37.9503 0.5 38.5778 0.5C39.2054 0.5 39.5315 0.694167 39.8196 0.865833C40.0912 1.0275 40.3252 1.16667 40.818 1.16667C41.3108 1.16667 41.5449 1.02708 41.816 0.865833C42.104 0.694583 42.4302 0.5 43.0577 0.5C43.6853 0.5 44.0114 0.694167 44.2995 0.865833C44.5711 1.0275 44.8051 1.16667 45.2979 1.16667C45.7907 1.16667 46.0248 1.02708 46.2964 0.865833C46.5845 0.694583 46.9106 0.5 47.5381 0.5C48.1657 0.5 48.4918 0.694167 48.7799 0.865833C49.0515 1.0275 49.2856 1.16667 49.7784 1.16667C50.2711 1.16667 50.5052 1.02708 50.7768 0.865833C51.0649 0.694583 51.391 0.5 52.0186 0.5C52.6461 0.5 52.9728 0.694167 53.2608 0.865833C53.5324 1.0275 53.7665 1.16667 54.2593 1.16667C54.7521 1.16667 54.9861 1.02708 55.2577 0.865833C55.5458 0.694583 55.8724 0.5 56.5 0.5V0.833333C56.0072 0.833333 55.7732 0.972917 55.5016 1.13417H55.5026Z" stroke="#F992D3" mask="url(#path-1-outside-1_2803_2327)"/>
</svg>
