<svg width="32" height="32" viewBox="0 0 32 32" fill="none" xmlns="http://www.w3.org/2000/svg">
<g clip-path="url(#clip0_3101_2437)">
<path d="M12.8066 29.7458L11.6517 26.4988L8.53901 27.9783C5.65783 29.348 2.64988 26.3424 4.02191 23.4613L5.50139 20.3488L2.25427 19.1939C-0.751429 18.1254 -0.751429 13.8746 2.25427 12.8061L5.50139 11.6512L4.02191 8.53865C2.65213 5.65759 5.65783 2.65247 8.53901 4.02174L11.6517 5.50116L12.8066 2.25418C13.8752 -0.751398 18.1257 -0.751398 19.1947 2.25418L20.3483 5.50116L23.461 4.02174C26.3417 2.65247 29.3474 5.65759 27.9781 8.53865L26.4986 11.6512L29.7457 12.8061C32.7514 13.8746 32.7514 18.1254 29.7457 19.1939L26.4986 20.3488L27.9781 23.4613C29.3474 26.3424 26.3417 29.3502 23.461 27.9783L20.3483 26.4988L19.1934 29.7458C18.1257 32.7514 13.8747 32.7514 12.8066 29.7458Z" fill="#FF4522"/>
<ellipse cx="16.0004" cy="16.052" rx="3.63636" ry="3.79221" transform="rotate(180 16.0004 16.052)" fill="#FAF7EF"/>
</g>
<defs>
<clipPath id="clip0_3101_2437">
<rect width="32" height="32" fill="white"/>
</clipPath>
</defs>
</svg>
